G04 #@! TF.GenerationSoftware,KiCad,Pcbnew,5.1.5-52549c5~86~ubuntu18.04.1*
G04 #@! TF.CreationDate,2020-04-24T02:07:20+10:00*
G04 #@! TF.ProjectId,prac2,70726163-322e-46b6-9963-61645f706362,rev?*
G04 #@! TF.SameCoordinates,Original*
G04 #@! TF.FileFunction,Soldermask,Bot*
G04 #@! TF.FilePolarity,Negative*
%FSLAX46Y46*%
G04 Gerber Fmt 4.6, Leading zero omitted, Abs format (unit mm)*
G04 Created by KiCad (PCBNEW 5.1.5-52549c5~86~ubuntu18.04.1) date 2020-04-24 02:07:20*
%MOMM*%
%LPD*%
G04 APERTURE LIST*
%ADD10C,0.100000*%
G04 APERTURE END LIST*
D10*
G36*
X57927512Y-115753427D02*
G01*
X58076812Y-115783124D01*
X58240784Y-115851044D01*
X58388354Y-115949647D01*
X58513853Y-116075146D01*
X58612456Y-116222716D01*
X58680376Y-116386688D01*
X58715000Y-116560759D01*
X58715000Y-116738241D01*
X58680376Y-116912312D01*
X58612456Y-117076284D01*
X58513853Y-117223854D01*
X58388354Y-117349353D01*
X58240784Y-117447956D01*
X58076812Y-117515876D01*
X57927512Y-117545573D01*
X57902742Y-117550500D01*
X57725258Y-117550500D01*
X57700488Y-117545573D01*
X57551188Y-117515876D01*
X57387216Y-117447956D01*
X57239646Y-117349353D01*
X57114147Y-117223854D01*
X57015544Y-117076284D01*
X56947624Y-116912312D01*
X56913000Y-116738241D01*
X56913000Y-116560759D01*
X56947624Y-116386688D01*
X57015544Y-116222716D01*
X57114147Y-116075146D01*
X57239646Y-115949647D01*
X57387216Y-115851044D01*
X57551188Y-115783124D01*
X57700488Y-115753427D01*
X57725258Y-115748500D01*
X57902742Y-115748500D01*
X57927512Y-115753427D01*
G37*
G36*
X88505512Y-115753427D02*
G01*
X88654812Y-115783124D01*
X88818784Y-115851044D01*
X88966354Y-115949647D01*
X89091853Y-116075146D01*
X89190456Y-116222716D01*
X89258376Y-116386688D01*
X89293000Y-116560759D01*
X89293000Y-116738241D01*
X89258376Y-116912312D01*
X89190456Y-117076284D01*
X89091853Y-117223854D01*
X88966354Y-117349353D01*
X88818784Y-117447956D01*
X88654812Y-117515876D01*
X88505512Y-117545573D01*
X88480742Y-117550500D01*
X88303258Y-117550500D01*
X88278488Y-117545573D01*
X88129188Y-117515876D01*
X87965216Y-117447956D01*
X87817646Y-117349353D01*
X87692147Y-117223854D01*
X87593544Y-117076284D01*
X87525624Y-116912312D01*
X87491000Y-116738241D01*
X87491000Y-116560759D01*
X87525624Y-116386688D01*
X87593544Y-116222716D01*
X87692147Y-116075146D01*
X87817646Y-115949647D01*
X87965216Y-115851044D01*
X88129188Y-115783124D01*
X88278488Y-115753427D01*
X88303258Y-115748500D01*
X88480742Y-115748500D01*
X88505512Y-115753427D01*
G37*
G36*
X81624000Y-117550500D02*
G01*
X79822000Y-117550500D01*
X79822000Y-115748500D01*
X81624000Y-115748500D01*
X81624000Y-117550500D01*
G37*
G36*
X78296512Y-115753427D02*
G01*
X78445812Y-115783124D01*
X78609784Y-115851044D01*
X78757354Y-115949647D01*
X78882853Y-116075146D01*
X78981456Y-116222716D01*
X79049376Y-116386688D01*
X79084000Y-116560759D01*
X79084000Y-116738241D01*
X79049376Y-116912312D01*
X78981456Y-117076284D01*
X78882853Y-117223854D01*
X78757354Y-117349353D01*
X78609784Y-117447956D01*
X78445812Y-117515876D01*
X78296512Y-117545573D01*
X78271742Y-117550500D01*
X78094258Y-117550500D01*
X78069488Y-117545573D01*
X77920188Y-117515876D01*
X77756216Y-117447956D01*
X77608646Y-117349353D01*
X77483147Y-117223854D01*
X77384544Y-117076284D01*
X77316624Y-116912312D01*
X77282000Y-116738241D01*
X77282000Y-116560759D01*
X77316624Y-116386688D01*
X77384544Y-116222716D01*
X77483147Y-116075146D01*
X77608646Y-115949647D01*
X77756216Y-115851044D01*
X77920188Y-115783124D01*
X78069488Y-115753427D01*
X78094258Y-115748500D01*
X78271742Y-115748500D01*
X78296512Y-115753427D01*
G37*
G36*
X75756512Y-115753427D02*
G01*
X75905812Y-115783124D01*
X76069784Y-115851044D01*
X76217354Y-115949647D01*
X76342853Y-116075146D01*
X76441456Y-116222716D01*
X76509376Y-116386688D01*
X76544000Y-116560759D01*
X76544000Y-116738241D01*
X76509376Y-116912312D01*
X76441456Y-117076284D01*
X76342853Y-117223854D01*
X76217354Y-117349353D01*
X76069784Y-117447956D01*
X75905812Y-117515876D01*
X75756512Y-117545573D01*
X75731742Y-117550500D01*
X75554258Y-117550500D01*
X75529488Y-117545573D01*
X75380188Y-117515876D01*
X75216216Y-117447956D01*
X75068646Y-117349353D01*
X74943147Y-117223854D01*
X74844544Y-117076284D01*
X74776624Y-116912312D01*
X74742000Y-116738241D01*
X74742000Y-116560759D01*
X74776624Y-116386688D01*
X74844544Y-116222716D01*
X74943147Y-116075146D01*
X75068646Y-115949647D01*
X75216216Y-115851044D01*
X75380188Y-115783124D01*
X75529488Y-115753427D01*
X75554258Y-115748500D01*
X75731742Y-115748500D01*
X75756512Y-115753427D01*
G37*
G36*
X73216512Y-115753427D02*
G01*
X73365812Y-115783124D01*
X73529784Y-115851044D01*
X73677354Y-115949647D01*
X73802853Y-116075146D01*
X73901456Y-116222716D01*
X73969376Y-116386688D01*
X74004000Y-116560759D01*
X74004000Y-116738241D01*
X73969376Y-116912312D01*
X73901456Y-117076284D01*
X73802853Y-117223854D01*
X73677354Y-117349353D01*
X73529784Y-117447956D01*
X73365812Y-117515876D01*
X73216512Y-117545573D01*
X73191742Y-117550500D01*
X73014258Y-117550500D01*
X72989488Y-117545573D01*
X72840188Y-117515876D01*
X72676216Y-117447956D01*
X72528646Y-117349353D01*
X72403147Y-117223854D01*
X72304544Y-117076284D01*
X72236624Y-116912312D01*
X72202000Y-116738241D01*
X72202000Y-116560759D01*
X72236624Y-116386688D01*
X72304544Y-116222716D01*
X72403147Y-116075146D01*
X72528646Y-115949647D01*
X72676216Y-115851044D01*
X72840188Y-115783124D01*
X72989488Y-115753427D01*
X73014258Y-115748500D01*
X73191742Y-115748500D01*
X73216512Y-115753427D01*
G37*
G36*
X96913000Y-117550500D02*
G01*
X95111000Y-117550500D01*
X95111000Y-115748500D01*
X96913000Y-115748500D01*
X96913000Y-117550500D01*
G37*
G36*
X91045512Y-115753427D02*
G01*
X91194812Y-115783124D01*
X91358784Y-115851044D01*
X91506354Y-115949647D01*
X91631853Y-116075146D01*
X91730456Y-116222716D01*
X91798376Y-116386688D01*
X91833000Y-116560759D01*
X91833000Y-116738241D01*
X91798376Y-116912312D01*
X91730456Y-117076284D01*
X91631853Y-117223854D01*
X91506354Y-117349353D01*
X91358784Y-117447956D01*
X91194812Y-117515876D01*
X91045512Y-117545573D01*
X91020742Y-117550500D01*
X90843258Y-117550500D01*
X90818488Y-117545573D01*
X90669188Y-117515876D01*
X90505216Y-117447956D01*
X90357646Y-117349353D01*
X90232147Y-117223854D01*
X90133544Y-117076284D01*
X90065624Y-116912312D01*
X90031000Y-116738241D01*
X90031000Y-116560759D01*
X90065624Y-116386688D01*
X90133544Y-116222716D01*
X90232147Y-116075146D01*
X90357646Y-115949647D01*
X90505216Y-115851044D01*
X90669188Y-115783124D01*
X90818488Y-115753427D01*
X90843258Y-115748500D01*
X91020742Y-115748500D01*
X91045512Y-115753427D01*
G37*
G36*
X93585512Y-115753427D02*
G01*
X93734812Y-115783124D01*
X93898784Y-115851044D01*
X94046354Y-115949647D01*
X94171853Y-116075146D01*
X94270456Y-116222716D01*
X94338376Y-116386688D01*
X94373000Y-116560759D01*
X94373000Y-116738241D01*
X94338376Y-116912312D01*
X94270456Y-117076284D01*
X94171853Y-117223854D01*
X94046354Y-117349353D01*
X93898784Y-117447956D01*
X93734812Y-117515876D01*
X93585512Y-117545573D01*
X93560742Y-117550500D01*
X93383258Y-117550500D01*
X93358488Y-117545573D01*
X93209188Y-117515876D01*
X93045216Y-117447956D01*
X92897646Y-117349353D01*
X92772147Y-117223854D01*
X92673544Y-117076284D01*
X92605624Y-116912312D01*
X92571000Y-116738241D01*
X92571000Y-116560759D01*
X92605624Y-116386688D01*
X92673544Y-116222716D01*
X92772147Y-116075146D01*
X92897646Y-115949647D01*
X93045216Y-115851044D01*
X93209188Y-115783124D01*
X93358488Y-115753427D01*
X93383258Y-115748500D01*
X93560742Y-115748500D01*
X93585512Y-115753427D01*
G37*
G36*
X45198512Y-115753427D02*
G01*
X45347812Y-115783124D01*
X45511784Y-115851044D01*
X45659354Y-115949647D01*
X45784853Y-116075146D01*
X45883456Y-116222716D01*
X45951376Y-116386688D01*
X45986000Y-116560759D01*
X45986000Y-116738241D01*
X45951376Y-116912312D01*
X45883456Y-117076284D01*
X45784853Y-117223854D01*
X45659354Y-117349353D01*
X45511784Y-117447956D01*
X45347812Y-117515876D01*
X45198512Y-117545573D01*
X45173742Y-117550500D01*
X44996258Y-117550500D01*
X44971488Y-117545573D01*
X44822188Y-117515876D01*
X44658216Y-117447956D01*
X44510646Y-117349353D01*
X44385147Y-117223854D01*
X44286544Y-117076284D01*
X44218624Y-116912312D01*
X44184000Y-116738241D01*
X44184000Y-116560759D01*
X44218624Y-116386688D01*
X44286544Y-116222716D01*
X44385147Y-116075146D01*
X44510646Y-115949647D01*
X44658216Y-115851044D01*
X44822188Y-115783124D01*
X44971488Y-115753427D01*
X44996258Y-115748500D01*
X45173742Y-115748500D01*
X45198512Y-115753427D01*
G37*
G36*
X43446000Y-117550500D02*
G01*
X41644000Y-117550500D01*
X41644000Y-115748500D01*
X43446000Y-115748500D01*
X43446000Y-117550500D01*
G37*
G36*
X60467512Y-115753427D02*
G01*
X60616812Y-115783124D01*
X60780784Y-115851044D01*
X60928354Y-115949647D01*
X61053853Y-116075146D01*
X61152456Y-116222716D01*
X61220376Y-116386688D01*
X61255000Y-116560759D01*
X61255000Y-116738241D01*
X61220376Y-116912312D01*
X61152456Y-117076284D01*
X61053853Y-117223854D01*
X60928354Y-117349353D01*
X60780784Y-117447956D01*
X60616812Y-117515876D01*
X60467512Y-117545573D01*
X60442742Y-117550500D01*
X60265258Y-117550500D01*
X60240488Y-117545573D01*
X60091188Y-117515876D01*
X59927216Y-117447956D01*
X59779646Y-117349353D01*
X59654147Y-117223854D01*
X59555544Y-117076284D01*
X59487624Y-116912312D01*
X59453000Y-116738241D01*
X59453000Y-116560759D01*
X59487624Y-116386688D01*
X59555544Y-116222716D01*
X59654147Y-116075146D01*
X59779646Y-115949647D01*
X59927216Y-115851044D01*
X60091188Y-115783124D01*
X60240488Y-115753427D01*
X60265258Y-115748500D01*
X60442742Y-115748500D01*
X60467512Y-115753427D01*
G37*
G36*
X63007512Y-115753427D02*
G01*
X63156812Y-115783124D01*
X63320784Y-115851044D01*
X63468354Y-115949647D01*
X63593853Y-116075146D01*
X63692456Y-116222716D01*
X63760376Y-116386688D01*
X63795000Y-116560759D01*
X63795000Y-116738241D01*
X63760376Y-116912312D01*
X63692456Y-117076284D01*
X63593853Y-117223854D01*
X63468354Y-117349353D01*
X63320784Y-117447956D01*
X63156812Y-117515876D01*
X63007512Y-117545573D01*
X62982742Y-117550500D01*
X62805258Y-117550500D01*
X62780488Y-117545573D01*
X62631188Y-117515876D01*
X62467216Y-117447956D01*
X62319646Y-117349353D01*
X62194147Y-117223854D01*
X62095544Y-117076284D01*
X62027624Y-116912312D01*
X61993000Y-116738241D01*
X61993000Y-116560759D01*
X62027624Y-116386688D01*
X62095544Y-116222716D01*
X62194147Y-116075146D01*
X62319646Y-115949647D01*
X62467216Y-115851044D01*
X62631188Y-115783124D01*
X62780488Y-115753427D01*
X62805258Y-115748500D01*
X62982742Y-115748500D01*
X63007512Y-115753427D01*
G37*
G36*
X50278512Y-115753427D02*
G01*
X50427812Y-115783124D01*
X50591784Y-115851044D01*
X50739354Y-115949647D01*
X50864853Y-116075146D01*
X50963456Y-116222716D01*
X51031376Y-116386688D01*
X51066000Y-116560759D01*
X51066000Y-116738241D01*
X51031376Y-116912312D01*
X50963456Y-117076284D01*
X50864853Y-117223854D01*
X50739354Y-117349353D01*
X50591784Y-117447956D01*
X50427812Y-117515876D01*
X50278512Y-117545573D01*
X50253742Y-117550500D01*
X50076258Y-117550500D01*
X50051488Y-117545573D01*
X49902188Y-117515876D01*
X49738216Y-117447956D01*
X49590646Y-117349353D01*
X49465147Y-117223854D01*
X49366544Y-117076284D01*
X49298624Y-116912312D01*
X49264000Y-116738241D01*
X49264000Y-116560759D01*
X49298624Y-116386688D01*
X49366544Y-116222716D01*
X49465147Y-116075146D01*
X49590646Y-115949647D01*
X49738216Y-115851044D01*
X49902188Y-115783124D01*
X50051488Y-115753427D01*
X50076258Y-115748500D01*
X50253742Y-115748500D01*
X50278512Y-115753427D01*
G37*
G36*
X47738512Y-115753427D02*
G01*
X47887812Y-115783124D01*
X48051784Y-115851044D01*
X48199354Y-115949647D01*
X48324853Y-116075146D01*
X48423456Y-116222716D01*
X48491376Y-116386688D01*
X48526000Y-116560759D01*
X48526000Y-116738241D01*
X48491376Y-116912312D01*
X48423456Y-117076284D01*
X48324853Y-117223854D01*
X48199354Y-117349353D01*
X48051784Y-117447956D01*
X47887812Y-117515876D01*
X47738512Y-117545573D01*
X47713742Y-117550500D01*
X47536258Y-117550500D01*
X47511488Y-117545573D01*
X47362188Y-117515876D01*
X47198216Y-117447956D01*
X47050646Y-117349353D01*
X46925147Y-117223854D01*
X46826544Y-117076284D01*
X46758624Y-116912312D01*
X46724000Y-116738241D01*
X46724000Y-116560759D01*
X46758624Y-116386688D01*
X46826544Y-116222716D01*
X46925147Y-116075146D01*
X47050646Y-115949647D01*
X47198216Y-115851044D01*
X47362188Y-115783124D01*
X47511488Y-115753427D01*
X47536258Y-115748500D01*
X47713742Y-115748500D01*
X47738512Y-115753427D01*
G37*
G36*
X66335000Y-117550500D02*
G01*
X64533000Y-117550500D01*
X64533000Y-115748500D01*
X66335000Y-115748500D01*
X66335000Y-117550500D01*
G37*
G36*
X77522564Y-109947389D02*
G01*
X77713833Y-110026615D01*
X77713835Y-110026616D01*
X77885973Y-110141635D01*
X78032365Y-110288027D01*
X78147385Y-110460167D01*
X78226611Y-110651436D01*
X78267000Y-110854484D01*
X78267000Y-111061516D01*
X78226611Y-111264564D01*
X78147385Y-111455833D01*
X78147384Y-111455835D01*
X78032365Y-111627973D01*
X77885973Y-111774365D01*
X77713835Y-111889384D01*
X77713834Y-111889385D01*
X77713833Y-111889385D01*
X77522564Y-111968611D01*
X77319516Y-112009000D01*
X77112484Y-112009000D01*
X76909436Y-111968611D01*
X76718167Y-111889385D01*
X76718166Y-111889385D01*
X76718165Y-111889384D01*
X76546027Y-111774365D01*
X76399635Y-111627973D01*
X76284616Y-111455835D01*
X76284615Y-111455833D01*
X76205389Y-111264564D01*
X76165000Y-111061516D01*
X76165000Y-110854484D01*
X76205389Y-110651436D01*
X76284615Y-110460167D01*
X76399635Y-110288027D01*
X76546027Y-110141635D01*
X76718165Y-110026616D01*
X76718167Y-110026615D01*
X76909436Y-109947389D01*
X77112484Y-109907000D01*
X77319516Y-109907000D01*
X77522564Y-109947389D01*
G37*
G36*
X90222564Y-109947389D02*
G01*
X90413833Y-110026615D01*
X90413835Y-110026616D01*
X90585973Y-110141635D01*
X90732365Y-110288027D01*
X90847385Y-110460167D01*
X90926611Y-110651436D01*
X90967000Y-110854484D01*
X90967000Y-111061516D01*
X90926611Y-111264564D01*
X90847385Y-111455833D01*
X90847384Y-111455835D01*
X90732365Y-111627973D01*
X90585973Y-111774365D01*
X90413835Y-111889384D01*
X90413834Y-111889385D01*
X90413833Y-111889385D01*
X90222564Y-111968611D01*
X90019516Y-112009000D01*
X89812484Y-112009000D01*
X89609436Y-111968611D01*
X89418167Y-111889385D01*
X89418166Y-111889385D01*
X89418165Y-111889384D01*
X89246027Y-111774365D01*
X89099635Y-111627973D01*
X88984616Y-111455835D01*
X88984615Y-111455833D01*
X88905389Y-111264564D01*
X88865000Y-111061516D01*
X88865000Y-110854484D01*
X88905389Y-110651436D01*
X88984615Y-110460167D01*
X89099635Y-110288027D01*
X89246027Y-110141635D01*
X89418165Y-110026616D01*
X89418167Y-110026615D01*
X89609436Y-109947389D01*
X89812484Y-109907000D01*
X90019516Y-109907000D01*
X90222564Y-109947389D01*
G37*
G36*
X87682564Y-109947389D02*
G01*
X87873833Y-110026615D01*
X87873835Y-110026616D01*
X88045973Y-110141635D01*
X88192365Y-110288027D01*
X88307385Y-110460167D01*
X88386611Y-110651436D01*
X88427000Y-110854484D01*
X88427000Y-111061516D01*
X88386611Y-111264564D01*
X88307385Y-111455833D01*
X88307384Y-111455835D01*
X88192365Y-111627973D01*
X88045973Y-111774365D01*
X87873835Y-111889384D01*
X87873834Y-111889385D01*
X87873833Y-111889385D01*
X87682564Y-111968611D01*
X87479516Y-112009000D01*
X87272484Y-112009000D01*
X87069436Y-111968611D01*
X86878167Y-111889385D01*
X86878166Y-111889385D01*
X86878165Y-111889384D01*
X86706027Y-111774365D01*
X86559635Y-111627973D01*
X86444616Y-111455835D01*
X86444615Y-111455833D01*
X86365389Y-111264564D01*
X86325000Y-111061516D01*
X86325000Y-110854484D01*
X86365389Y-110651436D01*
X86444615Y-110460167D01*
X86559635Y-110288027D01*
X86706027Y-110141635D01*
X86878165Y-110026616D01*
X86878167Y-110026615D01*
X87069436Y-109947389D01*
X87272484Y-109907000D01*
X87479516Y-109907000D01*
X87682564Y-109947389D01*
G37*
G36*
X85142564Y-109947389D02*
G01*
X85333833Y-110026615D01*
X85333835Y-110026616D01*
X85505973Y-110141635D01*
X85652365Y-110288027D01*
X85767385Y-110460167D01*
X85846611Y-110651436D01*
X85887000Y-110854484D01*
X85887000Y-111061516D01*
X85846611Y-111264564D01*
X85767385Y-111455833D01*
X85767384Y-111455835D01*
X85652365Y-111627973D01*
X85505973Y-111774365D01*
X85333835Y-111889384D01*
X85333834Y-111889385D01*
X85333833Y-111889385D01*
X85142564Y-111968611D01*
X84939516Y-112009000D01*
X84732484Y-112009000D01*
X84529436Y-111968611D01*
X84338167Y-111889385D01*
X84338166Y-111889385D01*
X84338165Y-111889384D01*
X84166027Y-111774365D01*
X84019635Y-111627973D01*
X83904616Y-111455835D01*
X83904615Y-111455833D01*
X83825389Y-111264564D01*
X83785000Y-111061516D01*
X83785000Y-110854484D01*
X83825389Y-110651436D01*
X83904615Y-110460167D01*
X84019635Y-110288027D01*
X84166027Y-110141635D01*
X84338165Y-110026616D01*
X84338167Y-110026615D01*
X84529436Y-109947389D01*
X84732484Y-109907000D01*
X84939516Y-109907000D01*
X85142564Y-109947389D01*
G37*
G36*
X82602564Y-109947389D02*
G01*
X82793833Y-110026615D01*
X82793835Y-110026616D01*
X82965973Y-110141635D01*
X83112365Y-110288027D01*
X83227385Y-110460167D01*
X83306611Y-110651436D01*
X83347000Y-110854484D01*
X83347000Y-111061516D01*
X83306611Y-111264564D01*
X83227385Y-111455833D01*
X83227384Y-111455835D01*
X83112365Y-111627973D01*
X82965973Y-111774365D01*
X82793835Y-111889384D01*
X82793834Y-111889385D01*
X82793833Y-111889385D01*
X82602564Y-111968611D01*
X82399516Y-112009000D01*
X82192484Y-112009000D01*
X81989436Y-111968611D01*
X81798167Y-111889385D01*
X81798166Y-111889385D01*
X81798165Y-111889384D01*
X81626027Y-111774365D01*
X81479635Y-111627973D01*
X81364616Y-111455835D01*
X81364615Y-111455833D01*
X81285389Y-111264564D01*
X81245000Y-111061516D01*
X81245000Y-110854484D01*
X81285389Y-110651436D01*
X81364615Y-110460167D01*
X81479635Y-110288027D01*
X81626027Y-110141635D01*
X81798165Y-110026616D01*
X81798167Y-110026615D01*
X81989436Y-109947389D01*
X82192484Y-109907000D01*
X82399516Y-109907000D01*
X82602564Y-109947389D01*
G37*
G36*
X80062564Y-109947389D02*
G01*
X80253833Y-110026615D01*
X80253835Y-110026616D01*
X80425973Y-110141635D01*
X80572365Y-110288027D01*
X80687385Y-110460167D01*
X80766611Y-110651436D01*
X80807000Y-110854484D01*
X80807000Y-111061516D01*
X80766611Y-111264564D01*
X80687385Y-111455833D01*
X80687384Y-111455835D01*
X80572365Y-111627973D01*
X80425973Y-111774365D01*
X80253835Y-111889384D01*
X80253834Y-111889385D01*
X80253833Y-111889385D01*
X80062564Y-111968611D01*
X79859516Y-112009000D01*
X79652484Y-112009000D01*
X79449436Y-111968611D01*
X79258167Y-111889385D01*
X79258166Y-111889385D01*
X79258165Y-111889384D01*
X79086027Y-111774365D01*
X78939635Y-111627973D01*
X78824616Y-111455835D01*
X78824615Y-111455833D01*
X78745389Y-111264564D01*
X78705000Y-111061516D01*
X78705000Y-110854484D01*
X78745389Y-110651436D01*
X78824615Y-110460167D01*
X78939635Y-110288027D01*
X79086027Y-110141635D01*
X79258165Y-110026616D01*
X79258167Y-110026615D01*
X79449436Y-109947389D01*
X79652484Y-109907000D01*
X79859516Y-109907000D01*
X80062564Y-109947389D01*
G37*
G36*
X60122564Y-109947389D02*
G01*
X60313833Y-110026615D01*
X60313835Y-110026616D01*
X60485973Y-110141635D01*
X60632365Y-110288027D01*
X60747385Y-110460167D01*
X60826611Y-110651436D01*
X60867000Y-110854484D01*
X60867000Y-111061516D01*
X60826611Y-111264564D01*
X60747385Y-111455833D01*
X60747384Y-111455835D01*
X60632365Y-111627973D01*
X60485973Y-111774365D01*
X60313835Y-111889384D01*
X60313834Y-111889385D01*
X60313833Y-111889385D01*
X60122564Y-111968611D01*
X59919516Y-112009000D01*
X59712484Y-112009000D01*
X59509436Y-111968611D01*
X59318167Y-111889385D01*
X59318166Y-111889385D01*
X59318165Y-111889384D01*
X59146027Y-111774365D01*
X58999635Y-111627973D01*
X58884616Y-111455835D01*
X58884615Y-111455833D01*
X58805389Y-111264564D01*
X58765000Y-111061516D01*
X58765000Y-110854484D01*
X58805389Y-110651436D01*
X58884615Y-110460167D01*
X58999635Y-110288027D01*
X59146027Y-110141635D01*
X59318165Y-110026616D01*
X59318167Y-110026615D01*
X59509436Y-109947389D01*
X59712484Y-109907000D01*
X59919516Y-109907000D01*
X60122564Y-109947389D01*
G37*
G36*
X67742564Y-109947389D02*
G01*
X67933833Y-110026615D01*
X67933835Y-110026616D01*
X68105973Y-110141635D01*
X68252365Y-110288027D01*
X68367385Y-110460167D01*
X68446611Y-110651436D01*
X68487000Y-110854484D01*
X68487000Y-111061516D01*
X68446611Y-111264564D01*
X68367385Y-111455833D01*
X68367384Y-111455835D01*
X68252365Y-111627973D01*
X68105973Y-111774365D01*
X67933835Y-111889384D01*
X67933834Y-111889385D01*
X67933833Y-111889385D01*
X67742564Y-111968611D01*
X67539516Y-112009000D01*
X67332484Y-112009000D01*
X67129436Y-111968611D01*
X66938167Y-111889385D01*
X66938166Y-111889385D01*
X66938165Y-111889384D01*
X66766027Y-111774365D01*
X66619635Y-111627973D01*
X66504616Y-111455835D01*
X66504615Y-111455833D01*
X66425389Y-111264564D01*
X66385000Y-111061516D01*
X66385000Y-110854484D01*
X66425389Y-110651436D01*
X66504615Y-110460167D01*
X66619635Y-110288027D01*
X66766027Y-110141635D01*
X66938165Y-110026616D01*
X66938167Y-110026615D01*
X67129436Y-109947389D01*
X67332484Y-109907000D01*
X67539516Y-109907000D01*
X67742564Y-109947389D01*
G37*
G36*
X72822564Y-109947389D02*
G01*
X73013833Y-110026615D01*
X73013835Y-110026616D01*
X73185973Y-110141635D01*
X73332365Y-110288027D01*
X73447385Y-110460167D01*
X73526611Y-110651436D01*
X73567000Y-110854484D01*
X73567000Y-111061516D01*
X73526611Y-111264564D01*
X73447385Y-111455833D01*
X73447384Y-111455835D01*
X73332365Y-111627973D01*
X73185973Y-111774365D01*
X73013835Y-111889384D01*
X73013834Y-111889385D01*
X73013833Y-111889385D01*
X72822564Y-111968611D01*
X72619516Y-112009000D01*
X72412484Y-112009000D01*
X72209436Y-111968611D01*
X72018167Y-111889385D01*
X72018166Y-111889385D01*
X72018165Y-111889384D01*
X71846027Y-111774365D01*
X71699635Y-111627973D01*
X71584616Y-111455835D01*
X71584615Y-111455833D01*
X71505389Y-111264564D01*
X71465000Y-111061516D01*
X71465000Y-110854484D01*
X71505389Y-110651436D01*
X71584615Y-110460167D01*
X71699635Y-110288027D01*
X71846027Y-110141635D01*
X72018165Y-110026616D01*
X72018167Y-110026615D01*
X72209436Y-109947389D01*
X72412484Y-109907000D01*
X72619516Y-109907000D01*
X72822564Y-109947389D01*
G37*
G36*
X70282564Y-109947389D02*
G01*
X70473833Y-110026615D01*
X70473835Y-110026616D01*
X70645973Y-110141635D01*
X70792365Y-110288027D01*
X70907385Y-110460167D01*
X70986611Y-110651436D01*
X71027000Y-110854484D01*
X71027000Y-111061516D01*
X70986611Y-111264564D01*
X70907385Y-111455833D01*
X70907384Y-111455835D01*
X70792365Y-111627973D01*
X70645973Y-111774365D01*
X70473835Y-111889384D01*
X70473834Y-111889385D01*
X70473833Y-111889385D01*
X70282564Y-111968611D01*
X70079516Y-112009000D01*
X69872484Y-112009000D01*
X69669436Y-111968611D01*
X69478167Y-111889385D01*
X69478166Y-111889385D01*
X69478165Y-111889384D01*
X69306027Y-111774365D01*
X69159635Y-111627973D01*
X69044616Y-111455835D01*
X69044615Y-111455833D01*
X68965389Y-111264564D01*
X68925000Y-111061516D01*
X68925000Y-110854484D01*
X68965389Y-110651436D01*
X69044615Y-110460167D01*
X69159635Y-110288027D01*
X69306027Y-110141635D01*
X69478165Y-110026616D01*
X69478167Y-110026615D01*
X69669436Y-109947389D01*
X69872484Y-109907000D01*
X70079516Y-109907000D01*
X70282564Y-109947389D01*
G37*
G36*
X55042564Y-109947389D02*
G01*
X55233833Y-110026615D01*
X55233835Y-110026616D01*
X55405973Y-110141635D01*
X55552365Y-110288027D01*
X55667385Y-110460167D01*
X55746611Y-110651436D01*
X55787000Y-110854484D01*
X55787000Y-111061516D01*
X55746611Y-111264564D01*
X55667385Y-111455833D01*
X55667384Y-111455835D01*
X55552365Y-111627973D01*
X55405973Y-111774365D01*
X55233835Y-111889384D01*
X55233834Y-111889385D01*
X55233833Y-111889385D01*
X55042564Y-111968611D01*
X54839516Y-112009000D01*
X54632484Y-112009000D01*
X54429436Y-111968611D01*
X54238167Y-111889385D01*
X54238166Y-111889385D01*
X54238165Y-111889384D01*
X54066027Y-111774365D01*
X53919635Y-111627973D01*
X53804616Y-111455835D01*
X53804615Y-111455833D01*
X53725389Y-111264564D01*
X53685000Y-111061516D01*
X53685000Y-110854484D01*
X53725389Y-110651436D01*
X53804615Y-110460167D01*
X53919635Y-110288027D01*
X54066027Y-110141635D01*
X54238165Y-110026616D01*
X54238167Y-110026615D01*
X54429436Y-109947389D01*
X54632484Y-109907000D01*
X54839516Y-109907000D01*
X55042564Y-109947389D01*
G37*
G36*
X65202564Y-109947389D02*
G01*
X65393833Y-110026615D01*
X65393835Y-110026616D01*
X65565973Y-110141635D01*
X65712365Y-110288027D01*
X65827385Y-110460167D01*
X65906611Y-110651436D01*
X65947000Y-110854484D01*
X65947000Y-111061516D01*
X65906611Y-111264564D01*
X65827385Y-111455833D01*
X65827384Y-111455835D01*
X65712365Y-111627973D01*
X65565973Y-111774365D01*
X65393835Y-111889384D01*
X65393834Y-111889385D01*
X65393833Y-111889385D01*
X65202564Y-111968611D01*
X64999516Y-112009000D01*
X64792484Y-112009000D01*
X64589436Y-111968611D01*
X64398167Y-111889385D01*
X64398166Y-111889385D01*
X64398165Y-111889384D01*
X64226027Y-111774365D01*
X64079635Y-111627973D01*
X63964616Y-111455835D01*
X63964615Y-111455833D01*
X63885389Y-111264564D01*
X63845000Y-111061516D01*
X63845000Y-110854484D01*
X63885389Y-110651436D01*
X63964615Y-110460167D01*
X64079635Y-110288027D01*
X64226027Y-110141635D01*
X64398165Y-110026616D01*
X64398167Y-110026615D01*
X64589436Y-109947389D01*
X64792484Y-109907000D01*
X64999516Y-109907000D01*
X65202564Y-109947389D01*
G37*
G36*
X57582564Y-109947389D02*
G01*
X57773833Y-110026615D01*
X57773835Y-110026616D01*
X57945973Y-110141635D01*
X58092365Y-110288027D01*
X58207385Y-110460167D01*
X58286611Y-110651436D01*
X58327000Y-110854484D01*
X58327000Y-111061516D01*
X58286611Y-111264564D01*
X58207385Y-111455833D01*
X58207384Y-111455835D01*
X58092365Y-111627973D01*
X57945973Y-111774365D01*
X57773835Y-111889384D01*
X57773834Y-111889385D01*
X57773833Y-111889385D01*
X57582564Y-111968611D01*
X57379516Y-112009000D01*
X57172484Y-112009000D01*
X56969436Y-111968611D01*
X56778167Y-111889385D01*
X56778166Y-111889385D01*
X56778165Y-111889384D01*
X56606027Y-111774365D01*
X56459635Y-111627973D01*
X56344616Y-111455835D01*
X56344615Y-111455833D01*
X56265389Y-111264564D01*
X56225000Y-111061516D01*
X56225000Y-110854484D01*
X56265389Y-110651436D01*
X56344615Y-110460167D01*
X56459635Y-110288027D01*
X56606027Y-110141635D01*
X56778165Y-110026616D01*
X56778167Y-110026615D01*
X56969436Y-109947389D01*
X57172484Y-109907000D01*
X57379516Y-109907000D01*
X57582564Y-109947389D01*
G37*
G36*
X62662564Y-109947389D02*
G01*
X62853833Y-110026615D01*
X62853835Y-110026616D01*
X63025973Y-110141635D01*
X63172365Y-110288027D01*
X63287385Y-110460167D01*
X63366611Y-110651436D01*
X63407000Y-110854484D01*
X63407000Y-111061516D01*
X63366611Y-111264564D01*
X63287385Y-111455833D01*
X63287384Y-111455835D01*
X63172365Y-111627973D01*
X63025973Y-111774365D01*
X62853835Y-111889384D01*
X62853834Y-111889385D01*
X62853833Y-111889385D01*
X62662564Y-111968611D01*
X62459516Y-112009000D01*
X62252484Y-112009000D01*
X62049436Y-111968611D01*
X61858167Y-111889385D01*
X61858166Y-111889385D01*
X61858165Y-111889384D01*
X61686027Y-111774365D01*
X61539635Y-111627973D01*
X61424616Y-111455835D01*
X61424615Y-111455833D01*
X61345389Y-111264564D01*
X61305000Y-111061516D01*
X61305000Y-110854484D01*
X61345389Y-110651436D01*
X61424615Y-110460167D01*
X61539635Y-110288027D01*
X61686027Y-110141635D01*
X61858165Y-110026616D01*
X61858167Y-110026615D01*
X62049436Y-109947389D01*
X62252484Y-109907000D01*
X62459516Y-109907000D01*
X62662564Y-109947389D01*
G37*
G36*
X90817000Y-107073000D02*
G01*
X89015000Y-107073000D01*
X89015000Y-105271000D01*
X90817000Y-105271000D01*
X90817000Y-107073000D01*
G37*
G36*
X79037000Y-106977000D02*
G01*
X77427000Y-106977000D01*
X77427000Y-105367000D01*
X79037000Y-105367000D01*
X79037000Y-106977000D01*
G37*
G36*
X90029512Y-102735927D02*
G01*
X90178812Y-102765624D01*
X90342784Y-102833544D01*
X90490354Y-102932147D01*
X90615853Y-103057646D01*
X90714456Y-103205216D01*
X90782376Y-103369188D01*
X90817000Y-103543259D01*
X90817000Y-103720741D01*
X90782376Y-103894812D01*
X90714456Y-104058784D01*
X90615853Y-104206354D01*
X90490354Y-104331853D01*
X90342784Y-104430456D01*
X90178812Y-104498376D01*
X90029512Y-104528073D01*
X90004742Y-104533000D01*
X89827258Y-104533000D01*
X89802488Y-104528073D01*
X89653188Y-104498376D01*
X89489216Y-104430456D01*
X89341646Y-104331853D01*
X89216147Y-104206354D01*
X89117544Y-104058784D01*
X89049624Y-103894812D01*
X89015000Y-103720741D01*
X89015000Y-103543259D01*
X89049624Y-103369188D01*
X89117544Y-103205216D01*
X89216147Y-103057646D01*
X89341646Y-102932147D01*
X89489216Y-102833544D01*
X89653188Y-102765624D01*
X89802488Y-102735927D01*
X89827258Y-102731000D01*
X90004742Y-102731000D01*
X90029512Y-102735927D01*
G37*
G36*
X78466810Y-102857935D02*
G01*
X78613309Y-102918617D01*
X78613310Y-102918618D01*
X78745158Y-103006716D01*
X78857284Y-103118842D01*
X78857285Y-103118844D01*
X78945383Y-103250691D01*
X79006065Y-103397190D01*
X79037000Y-103552713D01*
X79037000Y-103711287D01*
X79006065Y-103866810D01*
X78945383Y-104013309D01*
X78945382Y-104013310D01*
X78857284Y-104145158D01*
X78745158Y-104257284D01*
X78678785Y-104301633D01*
X78613309Y-104345383D01*
X78466810Y-104406065D01*
X78311287Y-104437000D01*
X78152713Y-104437000D01*
X77997190Y-104406065D01*
X77850691Y-104345383D01*
X77785215Y-104301633D01*
X77718842Y-104257284D01*
X77606716Y-104145158D01*
X77518618Y-104013310D01*
X77518617Y-104013309D01*
X77457935Y-103866810D01*
X77427000Y-103711287D01*
X77427000Y-103552713D01*
X77457935Y-103397190D01*
X77518617Y-103250691D01*
X77606715Y-103118844D01*
X77606716Y-103118842D01*
X77718842Y-103006716D01*
X77850690Y-102918618D01*
X77850691Y-102918617D01*
X77997190Y-102857935D01*
X78152713Y-102827000D01*
X78311287Y-102827000D01*
X78466810Y-102857935D01*
G37*
G36*
X90029512Y-100195927D02*
G01*
X90178812Y-100225624D01*
X90342784Y-100293544D01*
X90490354Y-100392147D01*
X90615853Y-100517646D01*
X90714456Y-100665216D01*
X90782376Y-100829188D01*
X90817000Y-101003259D01*
X90817000Y-101180741D01*
X90782376Y-101354812D01*
X90714456Y-101518784D01*
X90615853Y-101666354D01*
X90490354Y-101791853D01*
X90342784Y-101890456D01*
X90178812Y-101958376D01*
X90029512Y-101988073D01*
X90004742Y-101993000D01*
X89827258Y-101993000D01*
X89802488Y-101988073D01*
X89653188Y-101958376D01*
X89489216Y-101890456D01*
X89341646Y-101791853D01*
X89216147Y-101666354D01*
X89117544Y-101518784D01*
X89049624Y-101354812D01*
X89015000Y-101180741D01*
X89015000Y-101003259D01*
X89049624Y-100829188D01*
X89117544Y-100665216D01*
X89216147Y-100517646D01*
X89341646Y-100392147D01*
X89489216Y-100293544D01*
X89653188Y-100225624D01*
X89802488Y-100195927D01*
X89827258Y-100191000D01*
X90004742Y-100191000D01*
X90029512Y-100195927D01*
G37*
G36*
X78466810Y-100317935D02*
G01*
X78613309Y-100378617D01*
X78613310Y-100378618D01*
X78745158Y-100466716D01*
X78857284Y-100578842D01*
X78857285Y-100578844D01*
X78945383Y-100710691D01*
X79006065Y-100857190D01*
X79037000Y-101012713D01*
X79037000Y-101171287D01*
X79006065Y-101326810D01*
X78945383Y-101473309D01*
X78945382Y-101473310D01*
X78857284Y-101605158D01*
X78745158Y-101717284D01*
X78678785Y-101761633D01*
X78613309Y-101805383D01*
X78466810Y-101866065D01*
X78311287Y-101897000D01*
X78152713Y-101897000D01*
X77997190Y-101866065D01*
X77850691Y-101805383D01*
X77785215Y-101761633D01*
X77718842Y-101717284D01*
X77606716Y-101605158D01*
X77518618Y-101473310D01*
X77518617Y-101473309D01*
X77457935Y-101326810D01*
X77427000Y-101171287D01*
X77427000Y-101012713D01*
X77457935Y-100857190D01*
X77518617Y-100710691D01*
X77606715Y-100578844D01*
X77606716Y-100578842D01*
X77718842Y-100466716D01*
X77850690Y-100378618D01*
X77850691Y-100378617D01*
X77997190Y-100317935D01*
X78152713Y-100287000D01*
X78311287Y-100287000D01*
X78466810Y-100317935D01*
G37*
G36*
X90029512Y-97655927D02*
G01*
X90178812Y-97685624D01*
X90342784Y-97753544D01*
X90490354Y-97852147D01*
X90615853Y-97977646D01*
X90714456Y-98125216D01*
X90782376Y-98289188D01*
X90817000Y-98463259D01*
X90817000Y-98640741D01*
X90782376Y-98814812D01*
X90714456Y-98978784D01*
X90615853Y-99126354D01*
X90490354Y-99251853D01*
X90342784Y-99350456D01*
X90178812Y-99418376D01*
X90029512Y-99448073D01*
X90004742Y-99453000D01*
X89827258Y-99453000D01*
X89802488Y-99448073D01*
X89653188Y-99418376D01*
X89489216Y-99350456D01*
X89341646Y-99251853D01*
X89216147Y-99126354D01*
X89117544Y-98978784D01*
X89049624Y-98814812D01*
X89015000Y-98640741D01*
X89015000Y-98463259D01*
X89049624Y-98289188D01*
X89117544Y-98125216D01*
X89216147Y-97977646D01*
X89341646Y-97852147D01*
X89489216Y-97753544D01*
X89653188Y-97685624D01*
X89802488Y-97655927D01*
X89827258Y-97651000D01*
X90004742Y-97651000D01*
X90029512Y-97655927D01*
G37*
G36*
X78466810Y-97777935D02*
G01*
X78613309Y-97838617D01*
X78613310Y-97838618D01*
X78745158Y-97926716D01*
X78857284Y-98038842D01*
X78857285Y-98038844D01*
X78945383Y-98170691D01*
X79006065Y-98317190D01*
X79037000Y-98472713D01*
X79037000Y-98631287D01*
X79006065Y-98786810D01*
X78945383Y-98933309D01*
X78945382Y-98933310D01*
X78857284Y-99065158D01*
X78745158Y-99177284D01*
X78678785Y-99221633D01*
X78613309Y-99265383D01*
X78466810Y-99326065D01*
X78311287Y-99357000D01*
X78152713Y-99357000D01*
X77997190Y-99326065D01*
X77850691Y-99265383D01*
X77785215Y-99221633D01*
X77718842Y-99177284D01*
X77606716Y-99065158D01*
X77518618Y-98933310D01*
X77518617Y-98933309D01*
X77457935Y-98786810D01*
X77427000Y-98631287D01*
X77427000Y-98472713D01*
X77457935Y-98317190D01*
X77518617Y-98170691D01*
X77606715Y-98038844D01*
X77606716Y-98038842D01*
X77718842Y-97926716D01*
X77850690Y-97838618D01*
X77850691Y-97838617D01*
X77997190Y-97777935D01*
X78152713Y-97747000D01*
X78311287Y-97747000D01*
X78466810Y-97777935D01*
G37*
G36*
X90029512Y-95115927D02*
G01*
X90178812Y-95145624D01*
X90342784Y-95213544D01*
X90490354Y-95312147D01*
X90615853Y-95437646D01*
X90714456Y-95585216D01*
X90782376Y-95749188D01*
X90817000Y-95923259D01*
X90817000Y-96100741D01*
X90782376Y-96274812D01*
X90714456Y-96438784D01*
X90615853Y-96586354D01*
X90490354Y-96711853D01*
X90342784Y-96810456D01*
X90178812Y-96878376D01*
X90029512Y-96908073D01*
X90004742Y-96913000D01*
X89827258Y-96913000D01*
X89802488Y-96908073D01*
X89653188Y-96878376D01*
X89489216Y-96810456D01*
X89341646Y-96711853D01*
X89216147Y-96586354D01*
X89117544Y-96438784D01*
X89049624Y-96274812D01*
X89015000Y-96100741D01*
X89015000Y-95923259D01*
X89049624Y-95749188D01*
X89117544Y-95585216D01*
X89216147Y-95437646D01*
X89341646Y-95312147D01*
X89489216Y-95213544D01*
X89653188Y-95145624D01*
X89802488Y-95115927D01*
X89827258Y-95111000D01*
X90004742Y-95111000D01*
X90029512Y-95115927D01*
G37*
G36*
X46621000Y-96913000D02*
G01*
X44819000Y-96913000D01*
X44819000Y-95111000D01*
X46621000Y-95111000D01*
X46621000Y-96913000D01*
G37*
G36*
X58146810Y-95237935D02*
G01*
X58293309Y-95298617D01*
X58293310Y-95298618D01*
X58425158Y-95386716D01*
X58537284Y-95498842D01*
X58537285Y-95498844D01*
X58625383Y-95630691D01*
X58686065Y-95777190D01*
X58717000Y-95932713D01*
X58717000Y-96091287D01*
X58686065Y-96246810D01*
X58625383Y-96393309D01*
X58625382Y-96393310D01*
X58537284Y-96525158D01*
X58425158Y-96637284D01*
X58358785Y-96681633D01*
X58293309Y-96725383D01*
X58146810Y-96786065D01*
X57991287Y-96817000D01*
X57832713Y-96817000D01*
X57677190Y-96786065D01*
X57530691Y-96725383D01*
X57465215Y-96681633D01*
X57398842Y-96637284D01*
X57286716Y-96525158D01*
X57198618Y-96393310D01*
X57198617Y-96393309D01*
X57137935Y-96246810D01*
X57107000Y-96091287D01*
X57107000Y-95932713D01*
X57137935Y-95777190D01*
X57198617Y-95630691D01*
X57286715Y-95498844D01*
X57286716Y-95498842D01*
X57398842Y-95386716D01*
X57530690Y-95298618D01*
X57530691Y-95298617D01*
X57677190Y-95237935D01*
X57832713Y-95207000D01*
X57991287Y-95207000D01*
X58146810Y-95237935D01*
G37*
G36*
X78466810Y-95237935D02*
G01*
X78613309Y-95298617D01*
X78613310Y-95298618D01*
X78745158Y-95386716D01*
X78857284Y-95498842D01*
X78857285Y-95498844D01*
X78945383Y-95630691D01*
X79006065Y-95777190D01*
X79037000Y-95932713D01*
X79037000Y-96091287D01*
X79006065Y-96246810D01*
X78945383Y-96393309D01*
X78945382Y-96393310D01*
X78857284Y-96525158D01*
X78745158Y-96637284D01*
X78678785Y-96681633D01*
X78613309Y-96725383D01*
X78466810Y-96786065D01*
X78311287Y-96817000D01*
X78152713Y-96817000D01*
X77997190Y-96786065D01*
X77850691Y-96725383D01*
X77785215Y-96681633D01*
X77718842Y-96637284D01*
X77606716Y-96525158D01*
X77518618Y-96393310D01*
X77518617Y-96393309D01*
X77457935Y-96246810D01*
X77427000Y-96091287D01*
X77427000Y-95932713D01*
X77457935Y-95777190D01*
X77518617Y-95630691D01*
X77606715Y-95498844D01*
X77606716Y-95498842D01*
X77718842Y-95386716D01*
X77850690Y-95298618D01*
X77850691Y-95298617D01*
X77997190Y-95237935D01*
X78152713Y-95207000D01*
X78311287Y-95207000D01*
X78466810Y-95237935D01*
G37*
G36*
X90029512Y-92575927D02*
G01*
X90178812Y-92605624D01*
X90342784Y-92673544D01*
X90490354Y-92772147D01*
X90615853Y-92897646D01*
X90714456Y-93045216D01*
X90782376Y-93209188D01*
X90817000Y-93383259D01*
X90817000Y-93560741D01*
X90782376Y-93734812D01*
X90714456Y-93898784D01*
X90615853Y-94046354D01*
X90490354Y-94171853D01*
X90342784Y-94270456D01*
X90178812Y-94338376D01*
X90029512Y-94368073D01*
X90004742Y-94373000D01*
X89827258Y-94373000D01*
X89802488Y-94368073D01*
X89653188Y-94338376D01*
X89489216Y-94270456D01*
X89341646Y-94171853D01*
X89216147Y-94046354D01*
X89117544Y-93898784D01*
X89049624Y-93734812D01*
X89015000Y-93560741D01*
X89015000Y-93383259D01*
X89049624Y-93209188D01*
X89117544Y-93045216D01*
X89216147Y-92897646D01*
X89341646Y-92772147D01*
X89489216Y-92673544D01*
X89653188Y-92605624D01*
X89802488Y-92575927D01*
X89827258Y-92571000D01*
X90004742Y-92571000D01*
X90029512Y-92575927D01*
G37*
G36*
X45833512Y-92575927D02*
G01*
X45982812Y-92605624D01*
X46146784Y-92673544D01*
X46294354Y-92772147D01*
X46419853Y-92897646D01*
X46518456Y-93045216D01*
X46586376Y-93209188D01*
X46621000Y-93383259D01*
X46621000Y-93560741D01*
X46586376Y-93734812D01*
X46518456Y-93898784D01*
X46419853Y-94046354D01*
X46294354Y-94171853D01*
X46146784Y-94270456D01*
X45982812Y-94338376D01*
X45833512Y-94368073D01*
X45808742Y-94373000D01*
X45631258Y-94373000D01*
X45606488Y-94368073D01*
X45457188Y-94338376D01*
X45293216Y-94270456D01*
X45145646Y-94171853D01*
X45020147Y-94046354D01*
X44921544Y-93898784D01*
X44853624Y-93734812D01*
X44819000Y-93560741D01*
X44819000Y-93383259D01*
X44853624Y-93209188D01*
X44921544Y-93045216D01*
X45020147Y-92897646D01*
X45145646Y-92772147D01*
X45293216Y-92673544D01*
X45457188Y-92605624D01*
X45606488Y-92575927D01*
X45631258Y-92571000D01*
X45808742Y-92571000D01*
X45833512Y-92575927D01*
G37*
G36*
X78466810Y-92697935D02*
G01*
X78613309Y-92758617D01*
X78613310Y-92758618D01*
X78745158Y-92846716D01*
X78857284Y-92958842D01*
X78857285Y-92958844D01*
X78945383Y-93090691D01*
X79006065Y-93237190D01*
X79037000Y-93392713D01*
X79037000Y-93551287D01*
X79006065Y-93706810D01*
X78945383Y-93853309D01*
X78945382Y-93853310D01*
X78857284Y-93985158D01*
X78745158Y-94097284D01*
X78678785Y-94141633D01*
X78613309Y-94185383D01*
X78466810Y-94246065D01*
X78311287Y-94277000D01*
X78152713Y-94277000D01*
X77997190Y-94246065D01*
X77850691Y-94185383D01*
X77785215Y-94141633D01*
X77718842Y-94097284D01*
X77606716Y-93985158D01*
X77518618Y-93853310D01*
X77518617Y-93853309D01*
X77457935Y-93706810D01*
X77427000Y-93551287D01*
X77427000Y-93392713D01*
X77457935Y-93237190D01*
X77518617Y-93090691D01*
X77606715Y-92958844D01*
X77606716Y-92958842D01*
X77718842Y-92846716D01*
X77850690Y-92758618D01*
X77850691Y-92758617D01*
X77997190Y-92697935D01*
X78152713Y-92667000D01*
X78311287Y-92667000D01*
X78466810Y-92697935D01*
G37*
G36*
X58146810Y-92697935D02*
G01*
X58293309Y-92758617D01*
X58293310Y-92758618D01*
X58425158Y-92846716D01*
X58537284Y-92958842D01*
X58537285Y-92958844D01*
X58625383Y-93090691D01*
X58686065Y-93237190D01*
X58717000Y-93392713D01*
X58717000Y-93551287D01*
X58686065Y-93706810D01*
X58625383Y-93853309D01*
X58625382Y-93853310D01*
X58537284Y-93985158D01*
X58425158Y-94097284D01*
X58358785Y-94141633D01*
X58293309Y-94185383D01*
X58146810Y-94246065D01*
X57991287Y-94277000D01*
X57832713Y-94277000D01*
X57677190Y-94246065D01*
X57530691Y-94185383D01*
X57465215Y-94141633D01*
X57398842Y-94097284D01*
X57286716Y-93985158D01*
X57198618Y-93853310D01*
X57198617Y-93853309D01*
X57137935Y-93706810D01*
X57107000Y-93551287D01*
X57107000Y-93392713D01*
X57137935Y-93237190D01*
X57198617Y-93090691D01*
X57286715Y-92958844D01*
X57286716Y-92958842D01*
X57398842Y-92846716D01*
X57530690Y-92758618D01*
X57530691Y-92758617D01*
X57677190Y-92697935D01*
X57832713Y-92667000D01*
X57991287Y-92667000D01*
X58146810Y-92697935D01*
G37*
G36*
X45833512Y-90035927D02*
G01*
X45982812Y-90065624D01*
X46146784Y-90133544D01*
X46294354Y-90232147D01*
X46419853Y-90357646D01*
X46518456Y-90505216D01*
X46586376Y-90669188D01*
X46621000Y-90843259D01*
X46621000Y-91020741D01*
X46586376Y-91194812D01*
X46518456Y-91358784D01*
X46419853Y-91506354D01*
X46294354Y-91631853D01*
X46146784Y-91730456D01*
X45982812Y-91798376D01*
X45833512Y-91828073D01*
X45808742Y-91833000D01*
X45631258Y-91833000D01*
X45606488Y-91828073D01*
X45457188Y-91798376D01*
X45293216Y-91730456D01*
X45145646Y-91631853D01*
X45020147Y-91506354D01*
X44921544Y-91358784D01*
X44853624Y-91194812D01*
X44819000Y-91020741D01*
X44819000Y-90843259D01*
X44853624Y-90669188D01*
X44921544Y-90505216D01*
X45020147Y-90357646D01*
X45145646Y-90232147D01*
X45293216Y-90133544D01*
X45457188Y-90065624D01*
X45606488Y-90035927D01*
X45631258Y-90031000D01*
X45808742Y-90031000D01*
X45833512Y-90035927D01*
G37*
G36*
X90029512Y-90035927D02*
G01*
X90178812Y-90065624D01*
X90342784Y-90133544D01*
X90490354Y-90232147D01*
X90615853Y-90357646D01*
X90714456Y-90505216D01*
X90782376Y-90669188D01*
X90817000Y-90843259D01*
X90817000Y-91020741D01*
X90782376Y-91194812D01*
X90714456Y-91358784D01*
X90615853Y-91506354D01*
X90490354Y-91631853D01*
X90342784Y-91730456D01*
X90178812Y-91798376D01*
X90029512Y-91828073D01*
X90004742Y-91833000D01*
X89827258Y-91833000D01*
X89802488Y-91828073D01*
X89653188Y-91798376D01*
X89489216Y-91730456D01*
X89341646Y-91631853D01*
X89216147Y-91506354D01*
X89117544Y-91358784D01*
X89049624Y-91194812D01*
X89015000Y-91020741D01*
X89015000Y-90843259D01*
X89049624Y-90669188D01*
X89117544Y-90505216D01*
X89216147Y-90357646D01*
X89341646Y-90232147D01*
X89489216Y-90133544D01*
X89653188Y-90065624D01*
X89802488Y-90035927D01*
X89827258Y-90031000D01*
X90004742Y-90031000D01*
X90029512Y-90035927D01*
G37*
G36*
X78466810Y-90157935D02*
G01*
X78613309Y-90218617D01*
X78613310Y-90218618D01*
X78745158Y-90306716D01*
X78857284Y-90418842D01*
X78857285Y-90418844D01*
X78945383Y-90550691D01*
X79006065Y-90697190D01*
X79037000Y-90852713D01*
X79037000Y-91011287D01*
X79006065Y-91166810D01*
X78945383Y-91313309D01*
X78945382Y-91313310D01*
X78857284Y-91445158D01*
X78745158Y-91557284D01*
X78678785Y-91601633D01*
X78613309Y-91645383D01*
X78466810Y-91706065D01*
X78311287Y-91737000D01*
X78152713Y-91737000D01*
X77997190Y-91706065D01*
X77850691Y-91645383D01*
X77785215Y-91601633D01*
X77718842Y-91557284D01*
X77606716Y-91445158D01*
X77518618Y-91313310D01*
X77518617Y-91313309D01*
X77457935Y-91166810D01*
X77427000Y-91011287D01*
X77427000Y-90852713D01*
X77457935Y-90697190D01*
X77518617Y-90550691D01*
X77606715Y-90418844D01*
X77606716Y-90418842D01*
X77718842Y-90306716D01*
X77850690Y-90218618D01*
X77850691Y-90218617D01*
X77997190Y-90157935D01*
X78152713Y-90127000D01*
X78311287Y-90127000D01*
X78466810Y-90157935D01*
G37*
G36*
X58146810Y-90157935D02*
G01*
X58293309Y-90218617D01*
X58293310Y-90218618D01*
X58425158Y-90306716D01*
X58537284Y-90418842D01*
X58537285Y-90418844D01*
X58625383Y-90550691D01*
X58686065Y-90697190D01*
X58717000Y-90852713D01*
X58717000Y-91011287D01*
X58686065Y-91166810D01*
X58625383Y-91313309D01*
X58625382Y-91313310D01*
X58537284Y-91445158D01*
X58425158Y-91557284D01*
X58358785Y-91601633D01*
X58293309Y-91645383D01*
X58146810Y-91706065D01*
X57991287Y-91737000D01*
X57832713Y-91737000D01*
X57677190Y-91706065D01*
X57530691Y-91645383D01*
X57465215Y-91601633D01*
X57398842Y-91557284D01*
X57286716Y-91445158D01*
X57198618Y-91313310D01*
X57198617Y-91313309D01*
X57137935Y-91166810D01*
X57107000Y-91011287D01*
X57107000Y-90852713D01*
X57137935Y-90697190D01*
X57198617Y-90550691D01*
X57286715Y-90418844D01*
X57286716Y-90418842D01*
X57398842Y-90306716D01*
X57530690Y-90218618D01*
X57530691Y-90218617D01*
X57677190Y-90157935D01*
X57832713Y-90127000D01*
X57991287Y-90127000D01*
X58146810Y-90157935D01*
G37*
G36*
X90029512Y-87495927D02*
G01*
X90178812Y-87525624D01*
X90342784Y-87593544D01*
X90490354Y-87692147D01*
X90615853Y-87817646D01*
X90714456Y-87965216D01*
X90782376Y-88129188D01*
X90817000Y-88303259D01*
X90817000Y-88480741D01*
X90782376Y-88654812D01*
X90714456Y-88818784D01*
X90615853Y-88966354D01*
X90490354Y-89091853D01*
X90342784Y-89190456D01*
X90178812Y-89258376D01*
X90029512Y-89288073D01*
X90004742Y-89293000D01*
X89827258Y-89293000D01*
X89802488Y-89288073D01*
X89653188Y-89258376D01*
X89489216Y-89190456D01*
X89341646Y-89091853D01*
X89216147Y-88966354D01*
X89117544Y-88818784D01*
X89049624Y-88654812D01*
X89015000Y-88480741D01*
X89015000Y-88303259D01*
X89049624Y-88129188D01*
X89117544Y-87965216D01*
X89216147Y-87817646D01*
X89341646Y-87692147D01*
X89489216Y-87593544D01*
X89653188Y-87525624D01*
X89802488Y-87495927D01*
X89827258Y-87491000D01*
X90004742Y-87491000D01*
X90029512Y-87495927D01*
G37*
G36*
X45833512Y-87495927D02*
G01*
X45982812Y-87525624D01*
X46146784Y-87593544D01*
X46294354Y-87692147D01*
X46419853Y-87817646D01*
X46518456Y-87965216D01*
X46586376Y-88129188D01*
X46621000Y-88303259D01*
X46621000Y-88480741D01*
X46586376Y-88654812D01*
X46518456Y-88818784D01*
X46419853Y-88966354D01*
X46294354Y-89091853D01*
X46146784Y-89190456D01*
X45982812Y-89258376D01*
X45833512Y-89288073D01*
X45808742Y-89293000D01*
X45631258Y-89293000D01*
X45606488Y-89288073D01*
X45457188Y-89258376D01*
X45293216Y-89190456D01*
X45145646Y-89091853D01*
X45020147Y-88966354D01*
X44921544Y-88818784D01*
X44853624Y-88654812D01*
X44819000Y-88480741D01*
X44819000Y-88303259D01*
X44853624Y-88129188D01*
X44921544Y-87965216D01*
X45020147Y-87817646D01*
X45145646Y-87692147D01*
X45293216Y-87593544D01*
X45457188Y-87525624D01*
X45606488Y-87495927D01*
X45631258Y-87491000D01*
X45808742Y-87491000D01*
X45833512Y-87495927D01*
G37*
G36*
X58146810Y-87617935D02*
G01*
X58293309Y-87678617D01*
X58293310Y-87678618D01*
X58425158Y-87766716D01*
X58537284Y-87878842D01*
X58537285Y-87878844D01*
X58625383Y-88010691D01*
X58686065Y-88157190D01*
X58717000Y-88312713D01*
X58717000Y-88471287D01*
X58686065Y-88626810D01*
X58625383Y-88773309D01*
X58625382Y-88773310D01*
X58537284Y-88905158D01*
X58425158Y-89017284D01*
X58358785Y-89061633D01*
X58293309Y-89105383D01*
X58146810Y-89166065D01*
X57991287Y-89197000D01*
X57832713Y-89197000D01*
X57677190Y-89166065D01*
X57530691Y-89105383D01*
X57465215Y-89061633D01*
X57398842Y-89017284D01*
X57286716Y-88905158D01*
X57198618Y-88773310D01*
X57198617Y-88773309D01*
X57137935Y-88626810D01*
X57107000Y-88471287D01*
X57107000Y-88312713D01*
X57137935Y-88157190D01*
X57198617Y-88010691D01*
X57286715Y-87878844D01*
X57286716Y-87878842D01*
X57398842Y-87766716D01*
X57530690Y-87678618D01*
X57530691Y-87678617D01*
X57677190Y-87617935D01*
X57832713Y-87587000D01*
X57991287Y-87587000D01*
X58146810Y-87617935D01*
G37*
G36*
X78466810Y-87617935D02*
G01*
X78613309Y-87678617D01*
X78613310Y-87678618D01*
X78745158Y-87766716D01*
X78857284Y-87878842D01*
X78857285Y-87878844D01*
X78945383Y-88010691D01*
X79006065Y-88157190D01*
X79037000Y-88312713D01*
X79037000Y-88471287D01*
X79006065Y-88626810D01*
X78945383Y-88773309D01*
X78945382Y-88773310D01*
X78857284Y-88905158D01*
X78745158Y-89017284D01*
X78678785Y-89061633D01*
X78613309Y-89105383D01*
X78466810Y-89166065D01*
X78311287Y-89197000D01*
X78152713Y-89197000D01*
X77997190Y-89166065D01*
X77850691Y-89105383D01*
X77785215Y-89061633D01*
X77718842Y-89017284D01*
X77606716Y-88905158D01*
X77518618Y-88773310D01*
X77518617Y-88773309D01*
X77457935Y-88626810D01*
X77427000Y-88471287D01*
X77427000Y-88312713D01*
X77457935Y-88157190D01*
X77518617Y-88010691D01*
X77606715Y-87878844D01*
X77606716Y-87878842D01*
X77718842Y-87766716D01*
X77850690Y-87678618D01*
X77850691Y-87678617D01*
X77997190Y-87617935D01*
X78152713Y-87587000D01*
X78311287Y-87587000D01*
X78466810Y-87617935D01*
G37*
G36*
X45833512Y-84955927D02*
G01*
X45982812Y-84985624D01*
X46146784Y-85053544D01*
X46294354Y-85152147D01*
X46419853Y-85277646D01*
X46518456Y-85425216D01*
X46586376Y-85589188D01*
X46621000Y-85763259D01*
X46621000Y-85940741D01*
X46586376Y-86114812D01*
X46518456Y-86278784D01*
X46419853Y-86426354D01*
X46294354Y-86551853D01*
X46146784Y-86650456D01*
X45982812Y-86718376D01*
X45833512Y-86748073D01*
X45808742Y-86753000D01*
X45631258Y-86753000D01*
X45606488Y-86748073D01*
X45457188Y-86718376D01*
X45293216Y-86650456D01*
X45145646Y-86551853D01*
X45020147Y-86426354D01*
X44921544Y-86278784D01*
X44853624Y-86114812D01*
X44819000Y-85940741D01*
X44819000Y-85763259D01*
X44853624Y-85589188D01*
X44921544Y-85425216D01*
X45020147Y-85277646D01*
X45145646Y-85152147D01*
X45293216Y-85053544D01*
X45457188Y-84985624D01*
X45606488Y-84955927D01*
X45631258Y-84951000D01*
X45808742Y-84951000D01*
X45833512Y-84955927D01*
G37*
G36*
X90029512Y-84955927D02*
G01*
X90178812Y-84985624D01*
X90342784Y-85053544D01*
X90490354Y-85152147D01*
X90615853Y-85277646D01*
X90714456Y-85425216D01*
X90782376Y-85589188D01*
X90817000Y-85763259D01*
X90817000Y-85940741D01*
X90782376Y-86114812D01*
X90714456Y-86278784D01*
X90615853Y-86426354D01*
X90490354Y-86551853D01*
X90342784Y-86650456D01*
X90178812Y-86718376D01*
X90029512Y-86748073D01*
X90004742Y-86753000D01*
X89827258Y-86753000D01*
X89802488Y-86748073D01*
X89653188Y-86718376D01*
X89489216Y-86650456D01*
X89341646Y-86551853D01*
X89216147Y-86426354D01*
X89117544Y-86278784D01*
X89049624Y-86114812D01*
X89015000Y-85940741D01*
X89015000Y-85763259D01*
X89049624Y-85589188D01*
X89117544Y-85425216D01*
X89216147Y-85277646D01*
X89341646Y-85152147D01*
X89489216Y-85053544D01*
X89653188Y-84985624D01*
X89802488Y-84955927D01*
X89827258Y-84951000D01*
X90004742Y-84951000D01*
X90029512Y-84955927D01*
G37*
G36*
X78466810Y-85077935D02*
G01*
X78613309Y-85138617D01*
X78613310Y-85138618D01*
X78745158Y-85226716D01*
X78857284Y-85338842D01*
X78857285Y-85338844D01*
X78945383Y-85470691D01*
X79006065Y-85617190D01*
X79037000Y-85772713D01*
X79037000Y-85931287D01*
X79006065Y-86086810D01*
X78945383Y-86233309D01*
X78945382Y-86233310D01*
X78857284Y-86365158D01*
X78745158Y-86477284D01*
X78678785Y-86521633D01*
X78613309Y-86565383D01*
X78466810Y-86626065D01*
X78311287Y-86657000D01*
X78152713Y-86657000D01*
X77997190Y-86626065D01*
X77850691Y-86565383D01*
X77785215Y-86521633D01*
X77718842Y-86477284D01*
X77606716Y-86365158D01*
X77518618Y-86233310D01*
X77518617Y-86233309D01*
X77457935Y-86086810D01*
X77427000Y-85931287D01*
X77427000Y-85772713D01*
X77457935Y-85617190D01*
X77518617Y-85470691D01*
X77606715Y-85338844D01*
X77606716Y-85338842D01*
X77718842Y-85226716D01*
X77850690Y-85138618D01*
X77850691Y-85138617D01*
X77997190Y-85077935D01*
X78152713Y-85047000D01*
X78311287Y-85047000D01*
X78466810Y-85077935D01*
G37*
G36*
X58146810Y-85077935D02*
G01*
X58293309Y-85138617D01*
X58293310Y-85138618D01*
X58425158Y-85226716D01*
X58537284Y-85338842D01*
X58537285Y-85338844D01*
X58625383Y-85470691D01*
X58686065Y-85617190D01*
X58717000Y-85772713D01*
X58717000Y-85931287D01*
X58686065Y-86086810D01*
X58625383Y-86233309D01*
X58625382Y-86233310D01*
X58537284Y-86365158D01*
X58425158Y-86477284D01*
X58358785Y-86521633D01*
X58293309Y-86565383D01*
X58146810Y-86626065D01*
X57991287Y-86657000D01*
X57832713Y-86657000D01*
X57677190Y-86626065D01*
X57530691Y-86565383D01*
X57465215Y-86521633D01*
X57398842Y-86477284D01*
X57286716Y-86365158D01*
X57198618Y-86233310D01*
X57198617Y-86233309D01*
X57137935Y-86086810D01*
X57107000Y-85931287D01*
X57107000Y-85772713D01*
X57137935Y-85617190D01*
X57198617Y-85470691D01*
X57286715Y-85338844D01*
X57286716Y-85338842D01*
X57398842Y-85226716D01*
X57530690Y-85138618D01*
X57530691Y-85138617D01*
X57677190Y-85077935D01*
X57832713Y-85047000D01*
X57991287Y-85047000D01*
X58146810Y-85077935D01*
G37*
G36*
X45833512Y-82415927D02*
G01*
X45982812Y-82445624D01*
X46146784Y-82513544D01*
X46294354Y-82612147D01*
X46419853Y-82737646D01*
X46518456Y-82885216D01*
X46586376Y-83049188D01*
X46621000Y-83223259D01*
X46621000Y-83400741D01*
X46586376Y-83574812D01*
X46518456Y-83738784D01*
X46419853Y-83886354D01*
X46294354Y-84011853D01*
X46146784Y-84110456D01*
X45982812Y-84178376D01*
X45833512Y-84208073D01*
X45808742Y-84213000D01*
X45631258Y-84213000D01*
X45606488Y-84208073D01*
X45457188Y-84178376D01*
X45293216Y-84110456D01*
X45145646Y-84011853D01*
X45020147Y-83886354D01*
X44921544Y-83738784D01*
X44853624Y-83574812D01*
X44819000Y-83400741D01*
X44819000Y-83223259D01*
X44853624Y-83049188D01*
X44921544Y-82885216D01*
X45020147Y-82737646D01*
X45145646Y-82612147D01*
X45293216Y-82513544D01*
X45457188Y-82445624D01*
X45606488Y-82415927D01*
X45631258Y-82411000D01*
X45808742Y-82411000D01*
X45833512Y-82415927D01*
G37*
G36*
X90029512Y-82415927D02*
G01*
X90178812Y-82445624D01*
X90342784Y-82513544D01*
X90490354Y-82612147D01*
X90615853Y-82737646D01*
X90714456Y-82885216D01*
X90782376Y-83049188D01*
X90817000Y-83223259D01*
X90817000Y-83400741D01*
X90782376Y-83574812D01*
X90714456Y-83738784D01*
X90615853Y-83886354D01*
X90490354Y-84011853D01*
X90342784Y-84110456D01*
X90178812Y-84178376D01*
X90029512Y-84208073D01*
X90004742Y-84213000D01*
X89827258Y-84213000D01*
X89802488Y-84208073D01*
X89653188Y-84178376D01*
X89489216Y-84110456D01*
X89341646Y-84011853D01*
X89216147Y-83886354D01*
X89117544Y-83738784D01*
X89049624Y-83574812D01*
X89015000Y-83400741D01*
X89015000Y-83223259D01*
X89049624Y-83049188D01*
X89117544Y-82885216D01*
X89216147Y-82737646D01*
X89341646Y-82612147D01*
X89489216Y-82513544D01*
X89653188Y-82445624D01*
X89802488Y-82415927D01*
X89827258Y-82411000D01*
X90004742Y-82411000D01*
X90029512Y-82415927D01*
G37*
G36*
X78466810Y-82537935D02*
G01*
X78613309Y-82598617D01*
X78613310Y-82598618D01*
X78745158Y-82686716D01*
X78857284Y-82798842D01*
X78857285Y-82798844D01*
X78945383Y-82930691D01*
X79006065Y-83077190D01*
X79037000Y-83232713D01*
X79037000Y-83391287D01*
X79006065Y-83546810D01*
X78945383Y-83693309D01*
X78945382Y-83693310D01*
X78857284Y-83825158D01*
X78745158Y-83937284D01*
X78678785Y-83981633D01*
X78613309Y-84025383D01*
X78466810Y-84086065D01*
X78311287Y-84117000D01*
X78152713Y-84117000D01*
X77997190Y-84086065D01*
X77850691Y-84025383D01*
X77785215Y-83981633D01*
X77718842Y-83937284D01*
X77606716Y-83825158D01*
X77518618Y-83693310D01*
X77518617Y-83693309D01*
X77457935Y-83546810D01*
X77427000Y-83391287D01*
X77427000Y-83232713D01*
X77457935Y-83077190D01*
X77518617Y-82930691D01*
X77606715Y-82798844D01*
X77606716Y-82798842D01*
X77718842Y-82686716D01*
X77850690Y-82598618D01*
X77850691Y-82598617D01*
X77997190Y-82537935D01*
X78152713Y-82507000D01*
X78311287Y-82507000D01*
X78466810Y-82537935D01*
G37*
G36*
X58146810Y-82537935D02*
G01*
X58293309Y-82598617D01*
X58293310Y-82598618D01*
X58425158Y-82686716D01*
X58537284Y-82798842D01*
X58537285Y-82798844D01*
X58625383Y-82930691D01*
X58686065Y-83077190D01*
X58717000Y-83232713D01*
X58717000Y-83391287D01*
X58686065Y-83546810D01*
X58625383Y-83693309D01*
X58625382Y-83693310D01*
X58537284Y-83825158D01*
X58425158Y-83937284D01*
X58358785Y-83981633D01*
X58293309Y-84025383D01*
X58146810Y-84086065D01*
X57991287Y-84117000D01*
X57832713Y-84117000D01*
X57677190Y-84086065D01*
X57530691Y-84025383D01*
X57465215Y-83981633D01*
X57398842Y-83937284D01*
X57286716Y-83825158D01*
X57198618Y-83693310D01*
X57198617Y-83693309D01*
X57137935Y-83546810D01*
X57107000Y-83391287D01*
X57107000Y-83232713D01*
X57137935Y-83077190D01*
X57198617Y-82930691D01*
X57286715Y-82798844D01*
X57286716Y-82798842D01*
X57398842Y-82686716D01*
X57530690Y-82598618D01*
X57530691Y-82598617D01*
X57677190Y-82537935D01*
X57832713Y-82507000D01*
X57991287Y-82507000D01*
X58146810Y-82537935D01*
G37*
G36*
X90029512Y-79875927D02*
G01*
X90178812Y-79905624D01*
X90342784Y-79973544D01*
X90490354Y-80072147D01*
X90615853Y-80197646D01*
X90714456Y-80345216D01*
X90782376Y-80509188D01*
X90817000Y-80683259D01*
X90817000Y-80860741D01*
X90782376Y-81034812D01*
X90714456Y-81198784D01*
X90615853Y-81346354D01*
X90490354Y-81471853D01*
X90342784Y-81570456D01*
X90178812Y-81638376D01*
X90029512Y-81668073D01*
X90004742Y-81673000D01*
X89827258Y-81673000D01*
X89802488Y-81668073D01*
X89653188Y-81638376D01*
X89489216Y-81570456D01*
X89341646Y-81471853D01*
X89216147Y-81346354D01*
X89117544Y-81198784D01*
X89049624Y-81034812D01*
X89015000Y-80860741D01*
X89015000Y-80683259D01*
X89049624Y-80509188D01*
X89117544Y-80345216D01*
X89216147Y-80197646D01*
X89341646Y-80072147D01*
X89489216Y-79973544D01*
X89653188Y-79905624D01*
X89802488Y-79875927D01*
X89827258Y-79871000D01*
X90004742Y-79871000D01*
X90029512Y-79875927D01*
G37*
G36*
X45833512Y-79875927D02*
G01*
X45982812Y-79905624D01*
X46146784Y-79973544D01*
X46294354Y-80072147D01*
X46419853Y-80197646D01*
X46518456Y-80345216D01*
X46586376Y-80509188D01*
X46621000Y-80683259D01*
X46621000Y-80860741D01*
X46586376Y-81034812D01*
X46518456Y-81198784D01*
X46419853Y-81346354D01*
X46294354Y-81471853D01*
X46146784Y-81570456D01*
X45982812Y-81638376D01*
X45833512Y-81668073D01*
X45808742Y-81673000D01*
X45631258Y-81673000D01*
X45606488Y-81668073D01*
X45457188Y-81638376D01*
X45293216Y-81570456D01*
X45145646Y-81471853D01*
X45020147Y-81346354D01*
X44921544Y-81198784D01*
X44853624Y-81034812D01*
X44819000Y-80860741D01*
X44819000Y-80683259D01*
X44853624Y-80509188D01*
X44921544Y-80345216D01*
X45020147Y-80197646D01*
X45145646Y-80072147D01*
X45293216Y-79973544D01*
X45457188Y-79905624D01*
X45606488Y-79875927D01*
X45631258Y-79871000D01*
X45808742Y-79871000D01*
X45833512Y-79875927D01*
G37*
G36*
X78466810Y-79997935D02*
G01*
X78613309Y-80058617D01*
X78613310Y-80058618D01*
X78745158Y-80146716D01*
X78857284Y-80258842D01*
X78857285Y-80258844D01*
X78945383Y-80390691D01*
X79006065Y-80537190D01*
X79037000Y-80692713D01*
X79037000Y-80851287D01*
X79006065Y-81006810D01*
X78945383Y-81153309D01*
X78945382Y-81153310D01*
X78857284Y-81285158D01*
X78745158Y-81397284D01*
X78678785Y-81441633D01*
X78613309Y-81485383D01*
X78466810Y-81546065D01*
X78311287Y-81577000D01*
X78152713Y-81577000D01*
X77997190Y-81546065D01*
X77850691Y-81485383D01*
X77785215Y-81441633D01*
X77718842Y-81397284D01*
X77606716Y-81285158D01*
X77518618Y-81153310D01*
X77518617Y-81153309D01*
X77457935Y-81006810D01*
X77427000Y-80851287D01*
X77427000Y-80692713D01*
X77457935Y-80537190D01*
X77518617Y-80390691D01*
X77606715Y-80258844D01*
X77606716Y-80258842D01*
X77718842Y-80146716D01*
X77850690Y-80058618D01*
X77850691Y-80058617D01*
X77997190Y-79997935D01*
X78152713Y-79967000D01*
X78311287Y-79967000D01*
X78466810Y-79997935D01*
G37*
G36*
X58146810Y-79997935D02*
G01*
X58293309Y-80058617D01*
X58293310Y-80058618D01*
X58425158Y-80146716D01*
X58537284Y-80258842D01*
X58537285Y-80258844D01*
X58625383Y-80390691D01*
X58686065Y-80537190D01*
X58717000Y-80692713D01*
X58717000Y-80851287D01*
X58686065Y-81006810D01*
X58625383Y-81153309D01*
X58625382Y-81153310D01*
X58537284Y-81285158D01*
X58425158Y-81397284D01*
X58358785Y-81441633D01*
X58293309Y-81485383D01*
X58146810Y-81546065D01*
X57991287Y-81577000D01*
X57832713Y-81577000D01*
X57677190Y-81546065D01*
X57530691Y-81485383D01*
X57465215Y-81441633D01*
X57398842Y-81397284D01*
X57286716Y-81285158D01*
X57198618Y-81153310D01*
X57198617Y-81153309D01*
X57137935Y-81006810D01*
X57107000Y-80851287D01*
X57107000Y-80692713D01*
X57137935Y-80537190D01*
X57198617Y-80390691D01*
X57286715Y-80258844D01*
X57286716Y-80258842D01*
X57398842Y-80146716D01*
X57530690Y-80058618D01*
X57530691Y-80058617D01*
X57677190Y-79997935D01*
X57832713Y-79967000D01*
X57991287Y-79967000D01*
X58146810Y-79997935D01*
G37*
G36*
X45833512Y-77335927D02*
G01*
X45982812Y-77365624D01*
X46146784Y-77433544D01*
X46294354Y-77532147D01*
X46419853Y-77657646D01*
X46518456Y-77805216D01*
X46586376Y-77969188D01*
X46621000Y-78143259D01*
X46621000Y-78320741D01*
X46586376Y-78494812D01*
X46518456Y-78658784D01*
X46419853Y-78806354D01*
X46294354Y-78931853D01*
X46146784Y-79030456D01*
X45982812Y-79098376D01*
X45833512Y-79128073D01*
X45808742Y-79133000D01*
X45631258Y-79133000D01*
X45606488Y-79128073D01*
X45457188Y-79098376D01*
X45293216Y-79030456D01*
X45145646Y-78931853D01*
X45020147Y-78806354D01*
X44921544Y-78658784D01*
X44853624Y-78494812D01*
X44819000Y-78320741D01*
X44819000Y-78143259D01*
X44853624Y-77969188D01*
X44921544Y-77805216D01*
X45020147Y-77657646D01*
X45145646Y-77532147D01*
X45293216Y-77433544D01*
X45457188Y-77365624D01*
X45606488Y-77335927D01*
X45631258Y-77331000D01*
X45808742Y-77331000D01*
X45833512Y-77335927D01*
G37*
G36*
X90029512Y-77335927D02*
G01*
X90178812Y-77365624D01*
X90342784Y-77433544D01*
X90490354Y-77532147D01*
X90615853Y-77657646D01*
X90714456Y-77805216D01*
X90782376Y-77969188D01*
X90817000Y-78143259D01*
X90817000Y-78320741D01*
X90782376Y-78494812D01*
X90714456Y-78658784D01*
X90615853Y-78806354D01*
X90490354Y-78931853D01*
X90342784Y-79030456D01*
X90178812Y-79098376D01*
X90029512Y-79128073D01*
X90004742Y-79133000D01*
X89827258Y-79133000D01*
X89802488Y-79128073D01*
X89653188Y-79098376D01*
X89489216Y-79030456D01*
X89341646Y-78931853D01*
X89216147Y-78806354D01*
X89117544Y-78658784D01*
X89049624Y-78494812D01*
X89015000Y-78320741D01*
X89015000Y-78143259D01*
X89049624Y-77969188D01*
X89117544Y-77805216D01*
X89216147Y-77657646D01*
X89341646Y-77532147D01*
X89489216Y-77433544D01*
X89653188Y-77365624D01*
X89802488Y-77335927D01*
X89827258Y-77331000D01*
X90004742Y-77331000D01*
X90029512Y-77335927D01*
G37*
G36*
X58146810Y-77457935D02*
G01*
X58293309Y-77518617D01*
X58293310Y-77518618D01*
X58425158Y-77606716D01*
X58537284Y-77718842D01*
X58537285Y-77718844D01*
X58625383Y-77850691D01*
X58686065Y-77997190D01*
X58717000Y-78152713D01*
X58717000Y-78311287D01*
X58686065Y-78466810D01*
X58625383Y-78613309D01*
X58625382Y-78613310D01*
X58537284Y-78745158D01*
X58425158Y-78857284D01*
X58358785Y-78901633D01*
X58293309Y-78945383D01*
X58146810Y-79006065D01*
X57991287Y-79037000D01*
X57832713Y-79037000D01*
X57677190Y-79006065D01*
X57530691Y-78945383D01*
X57465215Y-78901633D01*
X57398842Y-78857284D01*
X57286716Y-78745158D01*
X57198618Y-78613310D01*
X57198617Y-78613309D01*
X57137935Y-78466810D01*
X57107000Y-78311287D01*
X57107000Y-78152713D01*
X57137935Y-77997190D01*
X57198617Y-77850691D01*
X57286715Y-77718844D01*
X57286716Y-77718842D01*
X57398842Y-77606716D01*
X57530690Y-77518618D01*
X57530691Y-77518617D01*
X57677190Y-77457935D01*
X57832713Y-77427000D01*
X57991287Y-77427000D01*
X58146810Y-77457935D01*
G37*
G36*
X78466810Y-77457935D02*
G01*
X78613309Y-77518617D01*
X78613310Y-77518618D01*
X78745158Y-77606716D01*
X78857284Y-77718842D01*
X78857285Y-77718844D01*
X78945383Y-77850691D01*
X79006065Y-77997190D01*
X79037000Y-78152713D01*
X79037000Y-78311287D01*
X79006065Y-78466810D01*
X78945383Y-78613309D01*
X78945382Y-78613310D01*
X78857284Y-78745158D01*
X78745158Y-78857284D01*
X78678785Y-78901633D01*
X78613309Y-78945383D01*
X78466810Y-79006065D01*
X78311287Y-79037000D01*
X78152713Y-79037000D01*
X77997190Y-79006065D01*
X77850691Y-78945383D01*
X77785215Y-78901633D01*
X77718842Y-78857284D01*
X77606716Y-78745158D01*
X77518618Y-78613310D01*
X77518617Y-78613309D01*
X77457935Y-78466810D01*
X77427000Y-78311287D01*
X77427000Y-78152713D01*
X77457935Y-77997190D01*
X77518617Y-77850691D01*
X77606715Y-77718844D01*
X77606716Y-77718842D01*
X77718842Y-77606716D01*
X77850690Y-77518618D01*
X77850691Y-77518617D01*
X77997190Y-77457935D01*
X78152713Y-77427000D01*
X78311287Y-77427000D01*
X78466810Y-77457935D01*
G37*
G36*
X90029512Y-74795927D02*
G01*
X90178812Y-74825624D01*
X90342784Y-74893544D01*
X90490354Y-74992147D01*
X90615853Y-75117646D01*
X90714456Y-75265216D01*
X90782376Y-75429188D01*
X90817000Y-75603259D01*
X90817000Y-75780741D01*
X90782376Y-75954812D01*
X90714456Y-76118784D01*
X90615853Y-76266354D01*
X90490354Y-76391853D01*
X90342784Y-76490456D01*
X90178812Y-76558376D01*
X90029512Y-76588073D01*
X90004742Y-76593000D01*
X89827258Y-76593000D01*
X89802488Y-76588073D01*
X89653188Y-76558376D01*
X89489216Y-76490456D01*
X89341646Y-76391853D01*
X89216147Y-76266354D01*
X89117544Y-76118784D01*
X89049624Y-75954812D01*
X89015000Y-75780741D01*
X89015000Y-75603259D01*
X89049624Y-75429188D01*
X89117544Y-75265216D01*
X89216147Y-75117646D01*
X89341646Y-74992147D01*
X89489216Y-74893544D01*
X89653188Y-74825624D01*
X89802488Y-74795927D01*
X89827258Y-74791000D01*
X90004742Y-74791000D01*
X90029512Y-74795927D01*
G37*
G36*
X45833512Y-74795927D02*
G01*
X45982812Y-74825624D01*
X46146784Y-74893544D01*
X46294354Y-74992147D01*
X46419853Y-75117646D01*
X46518456Y-75265216D01*
X46586376Y-75429188D01*
X46621000Y-75603259D01*
X46621000Y-75780741D01*
X46586376Y-75954812D01*
X46518456Y-76118784D01*
X46419853Y-76266354D01*
X46294354Y-76391853D01*
X46146784Y-76490456D01*
X45982812Y-76558376D01*
X45833512Y-76588073D01*
X45808742Y-76593000D01*
X45631258Y-76593000D01*
X45606488Y-76588073D01*
X45457188Y-76558376D01*
X45293216Y-76490456D01*
X45145646Y-76391853D01*
X45020147Y-76266354D01*
X44921544Y-76118784D01*
X44853624Y-75954812D01*
X44819000Y-75780741D01*
X44819000Y-75603259D01*
X44853624Y-75429188D01*
X44921544Y-75265216D01*
X45020147Y-75117646D01*
X45145646Y-74992147D01*
X45293216Y-74893544D01*
X45457188Y-74825624D01*
X45606488Y-74795927D01*
X45631258Y-74791000D01*
X45808742Y-74791000D01*
X45833512Y-74795927D01*
G37*
G36*
X58146810Y-74917935D02*
G01*
X58293309Y-74978617D01*
X58293310Y-74978618D01*
X58425158Y-75066716D01*
X58537284Y-75178842D01*
X58537285Y-75178844D01*
X58625383Y-75310691D01*
X58686065Y-75457190D01*
X58717000Y-75612713D01*
X58717000Y-75771287D01*
X58686065Y-75926810D01*
X58625383Y-76073309D01*
X58625382Y-76073310D01*
X58537284Y-76205158D01*
X58425158Y-76317284D01*
X58358785Y-76361633D01*
X58293309Y-76405383D01*
X58146810Y-76466065D01*
X57991287Y-76497000D01*
X57832713Y-76497000D01*
X57677190Y-76466065D01*
X57530691Y-76405383D01*
X57465215Y-76361633D01*
X57398842Y-76317284D01*
X57286716Y-76205158D01*
X57198618Y-76073310D01*
X57198617Y-76073309D01*
X57137935Y-75926810D01*
X57107000Y-75771287D01*
X57107000Y-75612713D01*
X57137935Y-75457190D01*
X57198617Y-75310691D01*
X57286715Y-75178844D01*
X57286716Y-75178842D01*
X57398842Y-75066716D01*
X57530690Y-74978618D01*
X57530691Y-74978617D01*
X57677190Y-74917935D01*
X57832713Y-74887000D01*
X57991287Y-74887000D01*
X58146810Y-74917935D01*
G37*
G36*
X78466810Y-74917935D02*
G01*
X78613309Y-74978617D01*
X78613310Y-74978618D01*
X78745158Y-75066716D01*
X78857284Y-75178842D01*
X78857285Y-75178844D01*
X78945383Y-75310691D01*
X79006065Y-75457190D01*
X79037000Y-75612713D01*
X79037000Y-75771287D01*
X79006065Y-75926810D01*
X78945383Y-76073309D01*
X78945382Y-76073310D01*
X78857284Y-76205158D01*
X78745158Y-76317284D01*
X78678785Y-76361633D01*
X78613309Y-76405383D01*
X78466810Y-76466065D01*
X78311287Y-76497000D01*
X78152713Y-76497000D01*
X77997190Y-76466065D01*
X77850691Y-76405383D01*
X77785215Y-76361633D01*
X77718842Y-76317284D01*
X77606716Y-76205158D01*
X77518618Y-76073310D01*
X77518617Y-76073309D01*
X77457935Y-75926810D01*
X77427000Y-75771287D01*
X77427000Y-75612713D01*
X77457935Y-75457190D01*
X77518617Y-75310691D01*
X77606715Y-75178844D01*
X77606716Y-75178842D01*
X77718842Y-75066716D01*
X77850690Y-74978618D01*
X77850691Y-74978617D01*
X77997190Y-74917935D01*
X78152713Y-74887000D01*
X78311287Y-74887000D01*
X78466810Y-74917935D01*
G37*
G36*
X90029512Y-72255927D02*
G01*
X90178812Y-72285624D01*
X90342784Y-72353544D01*
X90490354Y-72452147D01*
X90615853Y-72577646D01*
X90714456Y-72725216D01*
X90782376Y-72889188D01*
X90817000Y-73063259D01*
X90817000Y-73240741D01*
X90782376Y-73414812D01*
X90714456Y-73578784D01*
X90615853Y-73726354D01*
X90490354Y-73851853D01*
X90342784Y-73950456D01*
X90178812Y-74018376D01*
X90029512Y-74048073D01*
X90004742Y-74053000D01*
X89827258Y-74053000D01*
X89802488Y-74048073D01*
X89653188Y-74018376D01*
X89489216Y-73950456D01*
X89341646Y-73851853D01*
X89216147Y-73726354D01*
X89117544Y-73578784D01*
X89049624Y-73414812D01*
X89015000Y-73240741D01*
X89015000Y-73063259D01*
X89049624Y-72889188D01*
X89117544Y-72725216D01*
X89216147Y-72577646D01*
X89341646Y-72452147D01*
X89489216Y-72353544D01*
X89653188Y-72285624D01*
X89802488Y-72255927D01*
X89827258Y-72251000D01*
X90004742Y-72251000D01*
X90029512Y-72255927D01*
G37*
G36*
X45833512Y-72255927D02*
G01*
X45982812Y-72285624D01*
X46146784Y-72353544D01*
X46294354Y-72452147D01*
X46419853Y-72577646D01*
X46518456Y-72725216D01*
X46586376Y-72889188D01*
X46621000Y-73063259D01*
X46621000Y-73240741D01*
X46586376Y-73414812D01*
X46518456Y-73578784D01*
X46419853Y-73726354D01*
X46294354Y-73851853D01*
X46146784Y-73950456D01*
X45982812Y-74018376D01*
X45833512Y-74048073D01*
X45808742Y-74053000D01*
X45631258Y-74053000D01*
X45606488Y-74048073D01*
X45457188Y-74018376D01*
X45293216Y-73950456D01*
X45145646Y-73851853D01*
X45020147Y-73726354D01*
X44921544Y-73578784D01*
X44853624Y-73414812D01*
X44819000Y-73240741D01*
X44819000Y-73063259D01*
X44853624Y-72889188D01*
X44921544Y-72725216D01*
X45020147Y-72577646D01*
X45145646Y-72452147D01*
X45293216Y-72353544D01*
X45457188Y-72285624D01*
X45606488Y-72255927D01*
X45631258Y-72251000D01*
X45808742Y-72251000D01*
X45833512Y-72255927D01*
G37*
G36*
X78466810Y-72377935D02*
G01*
X78613309Y-72438617D01*
X78613310Y-72438618D01*
X78745158Y-72526716D01*
X78857284Y-72638842D01*
X78857285Y-72638844D01*
X78945383Y-72770691D01*
X79006065Y-72917190D01*
X79037000Y-73072713D01*
X79037000Y-73231287D01*
X79006065Y-73386810D01*
X78945383Y-73533309D01*
X78945382Y-73533310D01*
X78857284Y-73665158D01*
X78745158Y-73777284D01*
X78678785Y-73821633D01*
X78613309Y-73865383D01*
X78466810Y-73926065D01*
X78311287Y-73957000D01*
X78152713Y-73957000D01*
X77997190Y-73926065D01*
X77850691Y-73865383D01*
X77785215Y-73821633D01*
X77718842Y-73777284D01*
X77606716Y-73665158D01*
X77518618Y-73533310D01*
X77518617Y-73533309D01*
X77457935Y-73386810D01*
X77427000Y-73231287D01*
X77427000Y-73072713D01*
X77457935Y-72917190D01*
X77518617Y-72770691D01*
X77606715Y-72638844D01*
X77606716Y-72638842D01*
X77718842Y-72526716D01*
X77850690Y-72438618D01*
X77850691Y-72438617D01*
X77997190Y-72377935D01*
X78152713Y-72347000D01*
X78311287Y-72347000D01*
X78466810Y-72377935D01*
G37*
G36*
X58146810Y-72377935D02*
G01*
X58293309Y-72438617D01*
X58293310Y-72438618D01*
X58425158Y-72526716D01*
X58537284Y-72638842D01*
X58537285Y-72638844D01*
X58625383Y-72770691D01*
X58686065Y-72917190D01*
X58717000Y-73072713D01*
X58717000Y-73231287D01*
X58686065Y-73386810D01*
X58625383Y-73533309D01*
X58625382Y-73533310D01*
X58537284Y-73665158D01*
X58425158Y-73777284D01*
X58358785Y-73821633D01*
X58293309Y-73865383D01*
X58146810Y-73926065D01*
X57991287Y-73957000D01*
X57832713Y-73957000D01*
X57677190Y-73926065D01*
X57530691Y-73865383D01*
X57465215Y-73821633D01*
X57398842Y-73777284D01*
X57286716Y-73665158D01*
X57198618Y-73533310D01*
X57198617Y-73533309D01*
X57137935Y-73386810D01*
X57107000Y-73231287D01*
X57107000Y-73072713D01*
X57137935Y-72917190D01*
X57198617Y-72770691D01*
X57286715Y-72638844D01*
X57286716Y-72638842D01*
X57398842Y-72526716D01*
X57530690Y-72438618D01*
X57530691Y-72438617D01*
X57677190Y-72377935D01*
X57832713Y-72347000D01*
X57991287Y-72347000D01*
X58146810Y-72377935D01*
G37*
G36*
X90029512Y-69715927D02*
G01*
X90178812Y-69745624D01*
X90342784Y-69813544D01*
X90490354Y-69912147D01*
X90615853Y-70037646D01*
X90714456Y-70185216D01*
X90782376Y-70349188D01*
X90817000Y-70523259D01*
X90817000Y-70700741D01*
X90782376Y-70874812D01*
X90714456Y-71038784D01*
X90615853Y-71186354D01*
X90490354Y-71311853D01*
X90342784Y-71410456D01*
X90178812Y-71478376D01*
X90029512Y-71508073D01*
X90004742Y-71513000D01*
X89827258Y-71513000D01*
X89802488Y-71508073D01*
X89653188Y-71478376D01*
X89489216Y-71410456D01*
X89341646Y-71311853D01*
X89216147Y-71186354D01*
X89117544Y-71038784D01*
X89049624Y-70874812D01*
X89015000Y-70700741D01*
X89015000Y-70523259D01*
X89049624Y-70349188D01*
X89117544Y-70185216D01*
X89216147Y-70037646D01*
X89341646Y-69912147D01*
X89489216Y-69813544D01*
X89653188Y-69745624D01*
X89802488Y-69715927D01*
X89827258Y-69711000D01*
X90004742Y-69711000D01*
X90029512Y-69715927D01*
G37*
G36*
X45833512Y-69715927D02*
G01*
X45982812Y-69745624D01*
X46146784Y-69813544D01*
X46294354Y-69912147D01*
X46419853Y-70037646D01*
X46518456Y-70185216D01*
X46586376Y-70349188D01*
X46621000Y-70523259D01*
X46621000Y-70700741D01*
X46586376Y-70874812D01*
X46518456Y-71038784D01*
X46419853Y-71186354D01*
X46294354Y-71311853D01*
X46146784Y-71410456D01*
X45982812Y-71478376D01*
X45833512Y-71508073D01*
X45808742Y-71513000D01*
X45631258Y-71513000D01*
X45606488Y-71508073D01*
X45457188Y-71478376D01*
X45293216Y-71410456D01*
X45145646Y-71311853D01*
X45020147Y-71186354D01*
X44921544Y-71038784D01*
X44853624Y-70874812D01*
X44819000Y-70700741D01*
X44819000Y-70523259D01*
X44853624Y-70349188D01*
X44921544Y-70185216D01*
X45020147Y-70037646D01*
X45145646Y-69912147D01*
X45293216Y-69813544D01*
X45457188Y-69745624D01*
X45606488Y-69715927D01*
X45631258Y-69711000D01*
X45808742Y-69711000D01*
X45833512Y-69715927D01*
G37*
G36*
X78466810Y-69837935D02*
G01*
X78613309Y-69898617D01*
X78613310Y-69898618D01*
X78745158Y-69986716D01*
X78857284Y-70098842D01*
X78857285Y-70098844D01*
X78945383Y-70230691D01*
X79006065Y-70377190D01*
X79037000Y-70532713D01*
X79037000Y-70691287D01*
X79006065Y-70846810D01*
X78945383Y-70993309D01*
X78945382Y-70993310D01*
X78857284Y-71125158D01*
X78745158Y-71237284D01*
X78678785Y-71281633D01*
X78613309Y-71325383D01*
X78466810Y-71386065D01*
X78311287Y-71417000D01*
X78152713Y-71417000D01*
X77997190Y-71386065D01*
X77850691Y-71325383D01*
X77785215Y-71281633D01*
X77718842Y-71237284D01*
X77606716Y-71125158D01*
X77518618Y-70993310D01*
X77518617Y-70993309D01*
X77457935Y-70846810D01*
X77427000Y-70691287D01*
X77427000Y-70532713D01*
X77457935Y-70377190D01*
X77518617Y-70230691D01*
X77606715Y-70098844D01*
X77606716Y-70098842D01*
X77718842Y-69986716D01*
X77850690Y-69898618D01*
X77850691Y-69898617D01*
X77997190Y-69837935D01*
X78152713Y-69807000D01*
X78311287Y-69807000D01*
X78466810Y-69837935D01*
G37*
G36*
X58146810Y-69837935D02*
G01*
X58293309Y-69898617D01*
X58293310Y-69898618D01*
X58425158Y-69986716D01*
X58537284Y-70098842D01*
X58537285Y-70098844D01*
X58625383Y-70230691D01*
X58686065Y-70377190D01*
X58717000Y-70532713D01*
X58717000Y-70691287D01*
X58686065Y-70846810D01*
X58625383Y-70993309D01*
X58625382Y-70993310D01*
X58537284Y-71125158D01*
X58425158Y-71237284D01*
X58358785Y-71281633D01*
X58293309Y-71325383D01*
X58146810Y-71386065D01*
X57991287Y-71417000D01*
X57832713Y-71417000D01*
X57677190Y-71386065D01*
X57530691Y-71325383D01*
X57465215Y-71281633D01*
X57398842Y-71237284D01*
X57286716Y-71125158D01*
X57198618Y-70993310D01*
X57198617Y-70993309D01*
X57137935Y-70846810D01*
X57107000Y-70691287D01*
X57107000Y-70532713D01*
X57137935Y-70377190D01*
X57198617Y-70230691D01*
X57286715Y-70098844D01*
X57286716Y-70098842D01*
X57398842Y-69986716D01*
X57530690Y-69898618D01*
X57530691Y-69898617D01*
X57677190Y-69837935D01*
X57832713Y-69807000D01*
X57991287Y-69807000D01*
X58146810Y-69837935D01*
G37*
G36*
X90029512Y-67175927D02*
G01*
X90178812Y-67205624D01*
X90342784Y-67273544D01*
X90490354Y-67372147D01*
X90615853Y-67497646D01*
X90714456Y-67645216D01*
X90782376Y-67809188D01*
X90817000Y-67983259D01*
X90817000Y-68160741D01*
X90782376Y-68334812D01*
X90714456Y-68498784D01*
X90615853Y-68646354D01*
X90490354Y-68771853D01*
X90342784Y-68870456D01*
X90178812Y-68938376D01*
X90029512Y-68968073D01*
X90004742Y-68973000D01*
X89827258Y-68973000D01*
X89802488Y-68968073D01*
X89653188Y-68938376D01*
X89489216Y-68870456D01*
X89341646Y-68771853D01*
X89216147Y-68646354D01*
X89117544Y-68498784D01*
X89049624Y-68334812D01*
X89015000Y-68160741D01*
X89015000Y-67983259D01*
X89049624Y-67809188D01*
X89117544Y-67645216D01*
X89216147Y-67497646D01*
X89341646Y-67372147D01*
X89489216Y-67273544D01*
X89653188Y-67205624D01*
X89802488Y-67175927D01*
X89827258Y-67171000D01*
X90004742Y-67171000D01*
X90029512Y-67175927D01*
G37*
G36*
X45833512Y-67175927D02*
G01*
X45982812Y-67205624D01*
X46146784Y-67273544D01*
X46294354Y-67372147D01*
X46419853Y-67497646D01*
X46518456Y-67645216D01*
X46586376Y-67809188D01*
X46621000Y-67983259D01*
X46621000Y-68160741D01*
X46586376Y-68334812D01*
X46518456Y-68498784D01*
X46419853Y-68646354D01*
X46294354Y-68771853D01*
X46146784Y-68870456D01*
X45982812Y-68938376D01*
X45833512Y-68968073D01*
X45808742Y-68973000D01*
X45631258Y-68973000D01*
X45606488Y-68968073D01*
X45457188Y-68938376D01*
X45293216Y-68870456D01*
X45145646Y-68771853D01*
X45020147Y-68646354D01*
X44921544Y-68498784D01*
X44853624Y-68334812D01*
X44819000Y-68160741D01*
X44819000Y-67983259D01*
X44853624Y-67809188D01*
X44921544Y-67645216D01*
X45020147Y-67497646D01*
X45145646Y-67372147D01*
X45293216Y-67273544D01*
X45457188Y-67205624D01*
X45606488Y-67175927D01*
X45631258Y-67171000D01*
X45808742Y-67171000D01*
X45833512Y-67175927D01*
G37*
G36*
X58146810Y-67297935D02*
G01*
X58293309Y-67358617D01*
X58293310Y-67358618D01*
X58425158Y-67446716D01*
X58537284Y-67558842D01*
X58537285Y-67558844D01*
X58625383Y-67690691D01*
X58686065Y-67837190D01*
X58717000Y-67992713D01*
X58717000Y-68151287D01*
X58686065Y-68306810D01*
X58625383Y-68453309D01*
X58625382Y-68453310D01*
X58537284Y-68585158D01*
X58425158Y-68697284D01*
X58358785Y-68741633D01*
X58293309Y-68785383D01*
X58146810Y-68846065D01*
X57991287Y-68877000D01*
X57832713Y-68877000D01*
X57677190Y-68846065D01*
X57530691Y-68785383D01*
X57465215Y-68741633D01*
X57398842Y-68697284D01*
X57286716Y-68585158D01*
X57198618Y-68453310D01*
X57198617Y-68453309D01*
X57137935Y-68306810D01*
X57107000Y-68151287D01*
X57107000Y-67992713D01*
X57137935Y-67837190D01*
X57198617Y-67690691D01*
X57286715Y-67558844D01*
X57286716Y-67558842D01*
X57398842Y-67446716D01*
X57530690Y-67358618D01*
X57530691Y-67358617D01*
X57677190Y-67297935D01*
X57832713Y-67267000D01*
X57991287Y-67267000D01*
X58146810Y-67297935D01*
G37*
G36*
X78466810Y-67297935D02*
G01*
X78613309Y-67358617D01*
X78613310Y-67358618D01*
X78745158Y-67446716D01*
X78857284Y-67558842D01*
X78857285Y-67558844D01*
X78945383Y-67690691D01*
X79006065Y-67837190D01*
X79037000Y-67992713D01*
X79037000Y-68151287D01*
X79006065Y-68306810D01*
X78945383Y-68453309D01*
X78945382Y-68453310D01*
X78857284Y-68585158D01*
X78745158Y-68697284D01*
X78678785Y-68741633D01*
X78613309Y-68785383D01*
X78466810Y-68846065D01*
X78311287Y-68877000D01*
X78152713Y-68877000D01*
X77997190Y-68846065D01*
X77850691Y-68785383D01*
X77785215Y-68741633D01*
X77718842Y-68697284D01*
X77606716Y-68585158D01*
X77518618Y-68453310D01*
X77518617Y-68453309D01*
X77457935Y-68306810D01*
X77427000Y-68151287D01*
X77427000Y-67992713D01*
X77457935Y-67837190D01*
X77518617Y-67690691D01*
X77606715Y-67558844D01*
X77606716Y-67558842D01*
X77718842Y-67446716D01*
X77850690Y-67358618D01*
X77850691Y-67358617D01*
X77997190Y-67297935D01*
X78152713Y-67267000D01*
X78311287Y-67267000D01*
X78466810Y-67297935D01*
G37*
G36*
X69222564Y-61947389D02*
G01*
X69413833Y-62026615D01*
X69413835Y-62026616D01*
X69585973Y-62141635D01*
X69732365Y-62288027D01*
X69847385Y-62460167D01*
X69926611Y-62651436D01*
X69967000Y-62854484D01*
X69967000Y-63061516D01*
X69926611Y-63264564D01*
X69847385Y-63455833D01*
X69847384Y-63455835D01*
X69732365Y-63627973D01*
X69585973Y-63774365D01*
X69413835Y-63889384D01*
X69413834Y-63889385D01*
X69413833Y-63889385D01*
X69222564Y-63968611D01*
X69019516Y-64009000D01*
X68812484Y-64009000D01*
X68609436Y-63968611D01*
X68418167Y-63889385D01*
X68418166Y-63889385D01*
X68418165Y-63889384D01*
X68246027Y-63774365D01*
X68099635Y-63627973D01*
X67984616Y-63455835D01*
X67984615Y-63455833D01*
X67905389Y-63264564D01*
X67865000Y-63061516D01*
X67865000Y-62854484D01*
X67905389Y-62651436D01*
X67984615Y-62460167D01*
X68099635Y-62288027D01*
X68246027Y-62141635D01*
X68418165Y-62026616D01*
X68418167Y-62026615D01*
X68609436Y-61947389D01*
X68812484Y-61907000D01*
X69019516Y-61907000D01*
X69222564Y-61947389D01*
G37*
G36*
X66682564Y-61947389D02*
G01*
X66873833Y-62026615D01*
X66873835Y-62026616D01*
X67045973Y-62141635D01*
X67192365Y-62288027D01*
X67307385Y-62460167D01*
X67386611Y-62651436D01*
X67427000Y-62854484D01*
X67427000Y-63061516D01*
X67386611Y-63264564D01*
X67307385Y-63455833D01*
X67307384Y-63455835D01*
X67192365Y-63627973D01*
X67045973Y-63774365D01*
X66873835Y-63889384D01*
X66873834Y-63889385D01*
X66873833Y-63889385D01*
X66682564Y-63968611D01*
X66479516Y-64009000D01*
X66272484Y-64009000D01*
X66069436Y-63968611D01*
X65878167Y-63889385D01*
X65878166Y-63889385D01*
X65878165Y-63889384D01*
X65706027Y-63774365D01*
X65559635Y-63627973D01*
X65444616Y-63455835D01*
X65444615Y-63455833D01*
X65365389Y-63264564D01*
X65325000Y-63061516D01*
X65325000Y-62854484D01*
X65365389Y-62651436D01*
X65444615Y-62460167D01*
X65559635Y-62288027D01*
X65706027Y-62141635D01*
X65878165Y-62026616D01*
X65878167Y-62026615D01*
X66069436Y-61947389D01*
X66272484Y-61907000D01*
X66479516Y-61907000D01*
X66682564Y-61947389D01*
G37*
G36*
X64142564Y-61947389D02*
G01*
X64333833Y-62026615D01*
X64333835Y-62026616D01*
X64505973Y-62141635D01*
X64652365Y-62288027D01*
X64767385Y-62460167D01*
X64846611Y-62651436D01*
X64887000Y-62854484D01*
X64887000Y-63061516D01*
X64846611Y-63264564D01*
X64767385Y-63455833D01*
X64767384Y-63455835D01*
X64652365Y-63627973D01*
X64505973Y-63774365D01*
X64333835Y-63889384D01*
X64333834Y-63889385D01*
X64333833Y-63889385D01*
X64142564Y-63968611D01*
X63939516Y-64009000D01*
X63732484Y-64009000D01*
X63529436Y-63968611D01*
X63338167Y-63889385D01*
X63338166Y-63889385D01*
X63338165Y-63889384D01*
X63166027Y-63774365D01*
X63019635Y-63627973D01*
X62904616Y-63455835D01*
X62904615Y-63455833D01*
X62825389Y-63264564D01*
X62785000Y-63061516D01*
X62785000Y-62854484D01*
X62825389Y-62651436D01*
X62904615Y-62460167D01*
X63019635Y-62288027D01*
X63166027Y-62141635D01*
X63338165Y-62026616D01*
X63338167Y-62026615D01*
X63529436Y-61947389D01*
X63732484Y-61907000D01*
X63939516Y-61907000D01*
X64142564Y-61947389D01*
G37*
G36*
X61602564Y-61947389D02*
G01*
X61793833Y-62026615D01*
X61793835Y-62026616D01*
X61965973Y-62141635D01*
X62112365Y-62288027D01*
X62227385Y-62460167D01*
X62306611Y-62651436D01*
X62347000Y-62854484D01*
X62347000Y-63061516D01*
X62306611Y-63264564D01*
X62227385Y-63455833D01*
X62227384Y-63455835D01*
X62112365Y-63627973D01*
X61965973Y-63774365D01*
X61793835Y-63889384D01*
X61793834Y-63889385D01*
X61793833Y-63889385D01*
X61602564Y-63968611D01*
X61399516Y-64009000D01*
X61192484Y-64009000D01*
X60989436Y-63968611D01*
X60798167Y-63889385D01*
X60798166Y-63889385D01*
X60798165Y-63889384D01*
X60626027Y-63774365D01*
X60479635Y-63627973D01*
X60364616Y-63455835D01*
X60364615Y-63455833D01*
X60285389Y-63264564D01*
X60245000Y-63061516D01*
X60245000Y-62854484D01*
X60285389Y-62651436D01*
X60364615Y-62460167D01*
X60479635Y-62288027D01*
X60626027Y-62141635D01*
X60798165Y-62026616D01*
X60798167Y-62026615D01*
X60989436Y-61947389D01*
X61192484Y-61907000D01*
X61399516Y-61907000D01*
X61602564Y-61947389D01*
G37*
G36*
X80062564Y-61947389D02*
G01*
X80253833Y-62026615D01*
X80253835Y-62026616D01*
X80425973Y-62141635D01*
X80572365Y-62288027D01*
X80687385Y-62460167D01*
X80766611Y-62651436D01*
X80807000Y-62854484D01*
X80807000Y-63061516D01*
X80766611Y-63264564D01*
X80687385Y-63455833D01*
X80687384Y-63455835D01*
X80572365Y-63627973D01*
X80425973Y-63774365D01*
X80253835Y-63889384D01*
X80253834Y-63889385D01*
X80253833Y-63889385D01*
X80062564Y-63968611D01*
X79859516Y-64009000D01*
X79652484Y-64009000D01*
X79449436Y-63968611D01*
X79258167Y-63889385D01*
X79258166Y-63889385D01*
X79258165Y-63889384D01*
X79086027Y-63774365D01*
X78939635Y-63627973D01*
X78824616Y-63455835D01*
X78824615Y-63455833D01*
X78745389Y-63264564D01*
X78705000Y-63061516D01*
X78705000Y-62854484D01*
X78745389Y-62651436D01*
X78824615Y-62460167D01*
X78939635Y-62288027D01*
X79086027Y-62141635D01*
X79258165Y-62026616D01*
X79258167Y-62026615D01*
X79449436Y-61947389D01*
X79652484Y-61907000D01*
X79859516Y-61907000D01*
X80062564Y-61947389D01*
G37*
G36*
X59062564Y-61947389D02*
G01*
X59253833Y-62026615D01*
X59253835Y-62026616D01*
X59425973Y-62141635D01*
X59572365Y-62288027D01*
X59687385Y-62460167D01*
X59766611Y-62651436D01*
X59807000Y-62854484D01*
X59807000Y-63061516D01*
X59766611Y-63264564D01*
X59687385Y-63455833D01*
X59687384Y-63455835D01*
X59572365Y-63627973D01*
X59425973Y-63774365D01*
X59253835Y-63889384D01*
X59253834Y-63889385D01*
X59253833Y-63889385D01*
X59062564Y-63968611D01*
X58859516Y-64009000D01*
X58652484Y-64009000D01*
X58449436Y-63968611D01*
X58258167Y-63889385D01*
X58258166Y-63889385D01*
X58258165Y-63889384D01*
X58086027Y-63774365D01*
X57939635Y-63627973D01*
X57824616Y-63455835D01*
X57824615Y-63455833D01*
X57745389Y-63264564D01*
X57705000Y-63061516D01*
X57705000Y-62854484D01*
X57745389Y-62651436D01*
X57824615Y-62460167D01*
X57939635Y-62288027D01*
X58086027Y-62141635D01*
X58258165Y-62026616D01*
X58258167Y-62026615D01*
X58449436Y-61947389D01*
X58652484Y-61907000D01*
X58859516Y-61907000D01*
X59062564Y-61947389D01*
G37*
G36*
X53982564Y-61947389D02*
G01*
X54173833Y-62026615D01*
X54173835Y-62026616D01*
X54345973Y-62141635D01*
X54492365Y-62288027D01*
X54607385Y-62460167D01*
X54686611Y-62651436D01*
X54727000Y-62854484D01*
X54727000Y-63061516D01*
X54686611Y-63264564D01*
X54607385Y-63455833D01*
X54607384Y-63455835D01*
X54492365Y-63627973D01*
X54345973Y-63774365D01*
X54173835Y-63889384D01*
X54173834Y-63889385D01*
X54173833Y-63889385D01*
X53982564Y-63968611D01*
X53779516Y-64009000D01*
X53572484Y-64009000D01*
X53369436Y-63968611D01*
X53178167Y-63889385D01*
X53178166Y-63889385D01*
X53178165Y-63889384D01*
X53006027Y-63774365D01*
X52859635Y-63627973D01*
X52744616Y-63455835D01*
X52744615Y-63455833D01*
X52665389Y-63264564D01*
X52625000Y-63061516D01*
X52625000Y-62854484D01*
X52665389Y-62651436D01*
X52744615Y-62460167D01*
X52859635Y-62288027D01*
X53006027Y-62141635D01*
X53178165Y-62026616D01*
X53178167Y-62026615D01*
X53369436Y-61947389D01*
X53572484Y-61907000D01*
X53779516Y-61907000D01*
X53982564Y-61947389D01*
G37*
G36*
X48902564Y-61947389D02*
G01*
X49093833Y-62026615D01*
X49093835Y-62026616D01*
X49265973Y-62141635D01*
X49412365Y-62288027D01*
X49527385Y-62460167D01*
X49606611Y-62651436D01*
X49647000Y-62854484D01*
X49647000Y-63061516D01*
X49606611Y-63264564D01*
X49527385Y-63455833D01*
X49527384Y-63455835D01*
X49412365Y-63627973D01*
X49265973Y-63774365D01*
X49093835Y-63889384D01*
X49093834Y-63889385D01*
X49093833Y-63889385D01*
X48902564Y-63968611D01*
X48699516Y-64009000D01*
X48492484Y-64009000D01*
X48289436Y-63968611D01*
X48098167Y-63889385D01*
X48098166Y-63889385D01*
X48098165Y-63889384D01*
X47926027Y-63774365D01*
X47779635Y-63627973D01*
X47664616Y-63455835D01*
X47664615Y-63455833D01*
X47585389Y-63264564D01*
X47545000Y-63061516D01*
X47545000Y-62854484D01*
X47585389Y-62651436D01*
X47664615Y-62460167D01*
X47779635Y-62288027D01*
X47926027Y-62141635D01*
X48098165Y-62026616D01*
X48098167Y-62026615D01*
X48289436Y-61947389D01*
X48492484Y-61907000D01*
X48699516Y-61907000D01*
X48902564Y-61947389D01*
G37*
G36*
X46362564Y-61947389D02*
G01*
X46553833Y-62026615D01*
X46553835Y-62026616D01*
X46725973Y-62141635D01*
X46872365Y-62288027D01*
X46987385Y-62460167D01*
X47066611Y-62651436D01*
X47107000Y-62854484D01*
X47107000Y-63061516D01*
X47066611Y-63264564D01*
X46987385Y-63455833D01*
X46987384Y-63455835D01*
X46872365Y-63627973D01*
X46725973Y-63774365D01*
X46553835Y-63889384D01*
X46553834Y-63889385D01*
X46553833Y-63889385D01*
X46362564Y-63968611D01*
X46159516Y-64009000D01*
X45952484Y-64009000D01*
X45749436Y-63968611D01*
X45558167Y-63889385D01*
X45558166Y-63889385D01*
X45558165Y-63889384D01*
X45386027Y-63774365D01*
X45239635Y-63627973D01*
X45124616Y-63455835D01*
X45124615Y-63455833D01*
X45045389Y-63264564D01*
X45005000Y-63061516D01*
X45005000Y-62854484D01*
X45045389Y-62651436D01*
X45124615Y-62460167D01*
X45239635Y-62288027D01*
X45386027Y-62141635D01*
X45558165Y-62026616D01*
X45558167Y-62026615D01*
X45749436Y-61947389D01*
X45952484Y-61907000D01*
X46159516Y-61907000D01*
X46362564Y-61947389D01*
G37*
G36*
X77522564Y-61947389D02*
G01*
X77713833Y-62026615D01*
X77713835Y-62026616D01*
X77885973Y-62141635D01*
X78032365Y-62288027D01*
X78147385Y-62460167D01*
X78226611Y-62651436D01*
X78267000Y-62854484D01*
X78267000Y-63061516D01*
X78226611Y-63264564D01*
X78147385Y-63455833D01*
X78147384Y-63455835D01*
X78032365Y-63627973D01*
X77885973Y-63774365D01*
X77713835Y-63889384D01*
X77713834Y-63889385D01*
X77713833Y-63889385D01*
X77522564Y-63968611D01*
X77319516Y-64009000D01*
X77112484Y-64009000D01*
X76909436Y-63968611D01*
X76718167Y-63889385D01*
X76718166Y-63889385D01*
X76718165Y-63889384D01*
X76546027Y-63774365D01*
X76399635Y-63627973D01*
X76284616Y-63455835D01*
X76284615Y-63455833D01*
X76205389Y-63264564D01*
X76165000Y-63061516D01*
X76165000Y-62854484D01*
X76205389Y-62651436D01*
X76284615Y-62460167D01*
X76399635Y-62288027D01*
X76546027Y-62141635D01*
X76718165Y-62026616D01*
X76718167Y-62026615D01*
X76909436Y-61947389D01*
X77112484Y-61907000D01*
X77319516Y-61907000D01*
X77522564Y-61947389D01*
G37*
G36*
X87682564Y-61947389D02*
G01*
X87873833Y-62026615D01*
X87873835Y-62026616D01*
X88045973Y-62141635D01*
X88192365Y-62288027D01*
X88307385Y-62460167D01*
X88386611Y-62651436D01*
X88427000Y-62854484D01*
X88427000Y-63061516D01*
X88386611Y-63264564D01*
X88307385Y-63455833D01*
X88307384Y-63455835D01*
X88192365Y-63627973D01*
X88045973Y-63774365D01*
X87873835Y-63889384D01*
X87873834Y-63889385D01*
X87873833Y-63889385D01*
X87682564Y-63968611D01*
X87479516Y-64009000D01*
X87272484Y-64009000D01*
X87069436Y-63968611D01*
X86878167Y-63889385D01*
X86878166Y-63889385D01*
X86878165Y-63889384D01*
X86706027Y-63774365D01*
X86559635Y-63627973D01*
X86444616Y-63455835D01*
X86444615Y-63455833D01*
X86365389Y-63264564D01*
X86325000Y-63061516D01*
X86325000Y-62854484D01*
X86365389Y-62651436D01*
X86444615Y-62460167D01*
X86559635Y-62288027D01*
X86706027Y-62141635D01*
X86878165Y-62026616D01*
X86878167Y-62026615D01*
X87069436Y-61947389D01*
X87272484Y-61907000D01*
X87479516Y-61907000D01*
X87682564Y-61947389D01*
G37*
G36*
X85142564Y-61947389D02*
G01*
X85333833Y-62026615D01*
X85333835Y-62026616D01*
X85505973Y-62141635D01*
X85652365Y-62288027D01*
X85767385Y-62460167D01*
X85846611Y-62651436D01*
X85887000Y-62854484D01*
X85887000Y-63061516D01*
X85846611Y-63264564D01*
X85767385Y-63455833D01*
X85767384Y-63455835D01*
X85652365Y-63627973D01*
X85505973Y-63774365D01*
X85333835Y-63889384D01*
X85333834Y-63889385D01*
X85333833Y-63889385D01*
X85142564Y-63968611D01*
X84939516Y-64009000D01*
X84732484Y-64009000D01*
X84529436Y-63968611D01*
X84338167Y-63889385D01*
X84338166Y-63889385D01*
X84338165Y-63889384D01*
X84166027Y-63774365D01*
X84019635Y-63627973D01*
X83904616Y-63455835D01*
X83904615Y-63455833D01*
X83825389Y-63264564D01*
X83785000Y-63061516D01*
X83785000Y-62854484D01*
X83825389Y-62651436D01*
X83904615Y-62460167D01*
X84019635Y-62288027D01*
X84166027Y-62141635D01*
X84338165Y-62026616D01*
X84338167Y-62026615D01*
X84529436Y-61947389D01*
X84732484Y-61907000D01*
X84939516Y-61907000D01*
X85142564Y-61947389D01*
G37*
G36*
X74982564Y-61947389D02*
G01*
X75173833Y-62026615D01*
X75173835Y-62026616D01*
X75345973Y-62141635D01*
X75492365Y-62288027D01*
X75607385Y-62460167D01*
X75686611Y-62651436D01*
X75727000Y-62854484D01*
X75727000Y-63061516D01*
X75686611Y-63264564D01*
X75607385Y-63455833D01*
X75607384Y-63455835D01*
X75492365Y-63627973D01*
X75345973Y-63774365D01*
X75173835Y-63889384D01*
X75173834Y-63889385D01*
X75173833Y-63889385D01*
X74982564Y-63968611D01*
X74779516Y-64009000D01*
X74572484Y-64009000D01*
X74369436Y-63968611D01*
X74178167Y-63889385D01*
X74178166Y-63889385D01*
X74178165Y-63889384D01*
X74006027Y-63774365D01*
X73859635Y-63627973D01*
X73744616Y-63455835D01*
X73744615Y-63455833D01*
X73665389Y-63264564D01*
X73625000Y-63061516D01*
X73625000Y-62854484D01*
X73665389Y-62651436D01*
X73744615Y-62460167D01*
X73859635Y-62288027D01*
X74006027Y-62141635D01*
X74178165Y-62026616D01*
X74178167Y-62026615D01*
X74369436Y-61947389D01*
X74572484Y-61907000D01*
X74779516Y-61907000D01*
X74982564Y-61947389D01*
G37*
G36*
X82602564Y-61947389D02*
G01*
X82793833Y-62026615D01*
X82793835Y-62026616D01*
X82965973Y-62141635D01*
X83112365Y-62288027D01*
X83227385Y-62460167D01*
X83306611Y-62651436D01*
X83347000Y-62854484D01*
X83347000Y-63061516D01*
X83306611Y-63264564D01*
X83227385Y-63455833D01*
X83227384Y-63455835D01*
X83112365Y-63627973D01*
X82965973Y-63774365D01*
X82793835Y-63889384D01*
X82793834Y-63889385D01*
X82793833Y-63889385D01*
X82602564Y-63968611D01*
X82399516Y-64009000D01*
X82192484Y-64009000D01*
X81989436Y-63968611D01*
X81798167Y-63889385D01*
X81798166Y-63889385D01*
X81798165Y-63889384D01*
X81626027Y-63774365D01*
X81479635Y-63627973D01*
X81364616Y-63455835D01*
X81364615Y-63455833D01*
X81285389Y-63264564D01*
X81245000Y-63061516D01*
X81245000Y-62854484D01*
X81285389Y-62651436D01*
X81364615Y-62460167D01*
X81479635Y-62288027D01*
X81626027Y-62141635D01*
X81798165Y-62026616D01*
X81798167Y-62026615D01*
X81989436Y-61947389D01*
X82192484Y-61907000D01*
X82399516Y-61907000D01*
X82602564Y-61947389D01*
G37*
G36*
X90222564Y-61947389D02*
G01*
X90413833Y-62026615D01*
X90413835Y-62026616D01*
X90585973Y-62141635D01*
X90732365Y-62288027D01*
X90847385Y-62460167D01*
X90926611Y-62651436D01*
X90967000Y-62854484D01*
X90967000Y-63061516D01*
X90926611Y-63264564D01*
X90847385Y-63455833D01*
X90847384Y-63455835D01*
X90732365Y-63627973D01*
X90585973Y-63774365D01*
X90413835Y-63889384D01*
X90413834Y-63889385D01*
X90413833Y-63889385D01*
X90222564Y-63968611D01*
X90019516Y-64009000D01*
X89812484Y-64009000D01*
X89609436Y-63968611D01*
X89418167Y-63889385D01*
X89418166Y-63889385D01*
X89418165Y-63889384D01*
X89246027Y-63774365D01*
X89099635Y-63627973D01*
X88984616Y-63455835D01*
X88984615Y-63455833D01*
X88905389Y-63264564D01*
X88865000Y-63061516D01*
X88865000Y-62854484D01*
X88905389Y-62651436D01*
X88984615Y-62460167D01*
X89099635Y-62288027D01*
X89246027Y-62141635D01*
X89418165Y-62026616D01*
X89418167Y-62026615D01*
X89609436Y-61947389D01*
X89812484Y-61907000D01*
X90019516Y-61907000D01*
X90222564Y-61947389D01*
G37*
G36*
X51442564Y-61947389D02*
G01*
X51633833Y-62026615D01*
X51633835Y-62026616D01*
X51805973Y-62141635D01*
X51952365Y-62288027D01*
X52067385Y-62460167D01*
X52146611Y-62651436D01*
X52187000Y-62854484D01*
X52187000Y-63061516D01*
X52146611Y-63264564D01*
X52067385Y-63455833D01*
X52067384Y-63455835D01*
X51952365Y-63627973D01*
X51805973Y-63774365D01*
X51633835Y-63889384D01*
X51633834Y-63889385D01*
X51633833Y-63889385D01*
X51442564Y-63968611D01*
X51239516Y-64009000D01*
X51032484Y-64009000D01*
X50829436Y-63968611D01*
X50638167Y-63889385D01*
X50638166Y-63889385D01*
X50638165Y-63889384D01*
X50466027Y-63774365D01*
X50319635Y-63627973D01*
X50204616Y-63455835D01*
X50204615Y-63455833D01*
X50125389Y-63264564D01*
X50085000Y-63061516D01*
X50085000Y-62854484D01*
X50125389Y-62651436D01*
X50204615Y-62460167D01*
X50319635Y-62288027D01*
X50466027Y-62141635D01*
X50638165Y-62026616D01*
X50638167Y-62026615D01*
X50829436Y-61947389D01*
X51032484Y-61907000D01*
X51239516Y-61907000D01*
X51442564Y-61947389D01*
G37*
G36*
X72442564Y-61947389D02*
G01*
X72633833Y-62026615D01*
X72633835Y-62026616D01*
X72805973Y-62141635D01*
X72952365Y-62288027D01*
X73067385Y-62460167D01*
X73146611Y-62651436D01*
X73187000Y-62854484D01*
X73187000Y-63061516D01*
X73146611Y-63264564D01*
X73067385Y-63455833D01*
X73067384Y-63455835D01*
X72952365Y-63627973D01*
X72805973Y-63774365D01*
X72633835Y-63889384D01*
X72633834Y-63889385D01*
X72633833Y-63889385D01*
X72442564Y-63968611D01*
X72239516Y-64009000D01*
X72032484Y-64009000D01*
X71829436Y-63968611D01*
X71638167Y-63889385D01*
X71638166Y-63889385D01*
X71638165Y-63889384D01*
X71466027Y-63774365D01*
X71319635Y-63627973D01*
X71204616Y-63455835D01*
X71204615Y-63455833D01*
X71125389Y-63264564D01*
X71085000Y-63061516D01*
X71085000Y-62854484D01*
X71125389Y-62651436D01*
X71204615Y-62460167D01*
X71319635Y-62288027D01*
X71466027Y-62141635D01*
X71638165Y-62026616D01*
X71638167Y-62026615D01*
X71829436Y-61947389D01*
X72032484Y-61907000D01*
X72239516Y-61907000D01*
X72442564Y-61947389D01*
G37*
G36*
X56522564Y-61947389D02*
G01*
X56713833Y-62026615D01*
X56713835Y-62026616D01*
X56885973Y-62141635D01*
X57032365Y-62288027D01*
X57147385Y-62460167D01*
X57226611Y-62651436D01*
X57267000Y-62854484D01*
X57267000Y-63061516D01*
X57226611Y-63264564D01*
X57147385Y-63455833D01*
X57147384Y-63455835D01*
X57032365Y-63627973D01*
X56885973Y-63774365D01*
X56713835Y-63889384D01*
X56713834Y-63889385D01*
X56713833Y-63889385D01*
X56522564Y-63968611D01*
X56319516Y-64009000D01*
X56112484Y-64009000D01*
X55909436Y-63968611D01*
X55718167Y-63889385D01*
X55718166Y-63889385D01*
X55718165Y-63889384D01*
X55546027Y-63774365D01*
X55399635Y-63627973D01*
X55284616Y-63455835D01*
X55284615Y-63455833D01*
X55205389Y-63264564D01*
X55165000Y-63061516D01*
X55165000Y-62854484D01*
X55205389Y-62651436D01*
X55284615Y-62460167D01*
X55399635Y-62288027D01*
X55546027Y-62141635D01*
X55718165Y-62026616D01*
X55718167Y-62026615D01*
X55909436Y-61947389D01*
X56112484Y-61907000D01*
X56319516Y-61907000D01*
X56522564Y-61947389D01*
G37*
G36*
X62407012Y-56253927D02*
G01*
X62556312Y-56283624D01*
X62720284Y-56351544D01*
X62867854Y-56450147D01*
X62993353Y-56575646D01*
X63091956Y-56723216D01*
X63159876Y-56887188D01*
X63194500Y-57061259D01*
X63194500Y-57238741D01*
X63159876Y-57412812D01*
X63091956Y-57576784D01*
X62993353Y-57724354D01*
X62867854Y-57849853D01*
X62720284Y-57948456D01*
X62556312Y-58016376D01*
X62407012Y-58046073D01*
X62382242Y-58051000D01*
X62204758Y-58051000D01*
X62179988Y-58046073D01*
X62030688Y-58016376D01*
X61866716Y-57948456D01*
X61719146Y-57849853D01*
X61593647Y-57724354D01*
X61495044Y-57576784D01*
X61427124Y-57412812D01*
X61392500Y-57238741D01*
X61392500Y-57061259D01*
X61427124Y-56887188D01*
X61495044Y-56723216D01*
X61593647Y-56575646D01*
X61719146Y-56450147D01*
X61866716Y-56351544D01*
X62030688Y-56283624D01*
X62179988Y-56253927D01*
X62204758Y-56249000D01*
X62382242Y-56249000D01*
X62407012Y-56253927D01*
G37*
G36*
X59867012Y-56253927D02*
G01*
X60016312Y-56283624D01*
X60180284Y-56351544D01*
X60327854Y-56450147D01*
X60453353Y-56575646D01*
X60551956Y-56723216D01*
X60619876Y-56887188D01*
X60654500Y-57061259D01*
X60654500Y-57238741D01*
X60619876Y-57412812D01*
X60551956Y-57576784D01*
X60453353Y-57724354D01*
X60327854Y-57849853D01*
X60180284Y-57948456D01*
X60016312Y-58016376D01*
X59867012Y-58046073D01*
X59842242Y-58051000D01*
X59664758Y-58051000D01*
X59639988Y-58046073D01*
X59490688Y-58016376D01*
X59326716Y-57948456D01*
X59179146Y-57849853D01*
X59053647Y-57724354D01*
X58955044Y-57576784D01*
X58887124Y-57412812D01*
X58852500Y-57238741D01*
X58852500Y-57061259D01*
X58887124Y-56887188D01*
X58955044Y-56723216D01*
X59053647Y-56575646D01*
X59179146Y-56450147D01*
X59326716Y-56351544D01*
X59490688Y-56283624D01*
X59639988Y-56253927D01*
X59664758Y-56249000D01*
X59842242Y-56249000D01*
X59867012Y-56253927D01*
G37*
G36*
X57327012Y-56253927D02*
G01*
X57476312Y-56283624D01*
X57640284Y-56351544D01*
X57787854Y-56450147D01*
X57913353Y-56575646D01*
X58011956Y-56723216D01*
X58079876Y-56887188D01*
X58114500Y-57061259D01*
X58114500Y-57238741D01*
X58079876Y-57412812D01*
X58011956Y-57576784D01*
X57913353Y-57724354D01*
X57787854Y-57849853D01*
X57640284Y-57948456D01*
X57476312Y-58016376D01*
X57327012Y-58046073D01*
X57302242Y-58051000D01*
X57124758Y-58051000D01*
X57099988Y-58046073D01*
X56950688Y-58016376D01*
X56786716Y-57948456D01*
X56639146Y-57849853D01*
X56513647Y-57724354D01*
X56415044Y-57576784D01*
X56347124Y-57412812D01*
X56312500Y-57238741D01*
X56312500Y-57061259D01*
X56347124Y-56887188D01*
X56415044Y-56723216D01*
X56513647Y-56575646D01*
X56639146Y-56450147D01*
X56786716Y-56351544D01*
X56950688Y-56283624D01*
X57099988Y-56253927D01*
X57124758Y-56249000D01*
X57302242Y-56249000D01*
X57327012Y-56253927D01*
G37*
G36*
X96209012Y-56253927D02*
G01*
X96358312Y-56283624D01*
X96522284Y-56351544D01*
X96669854Y-56450147D01*
X96795353Y-56575646D01*
X96893956Y-56723216D01*
X96961876Y-56887188D01*
X96996500Y-57061259D01*
X96996500Y-57238741D01*
X96961876Y-57412812D01*
X96893956Y-57576784D01*
X96795353Y-57724354D01*
X96669854Y-57849853D01*
X96522284Y-57948456D01*
X96358312Y-58016376D01*
X96209012Y-58046073D01*
X96184242Y-58051000D01*
X96006758Y-58051000D01*
X95981988Y-58046073D01*
X95832688Y-58016376D01*
X95668716Y-57948456D01*
X95521146Y-57849853D01*
X95395647Y-57724354D01*
X95297044Y-57576784D01*
X95229124Y-57412812D01*
X95194500Y-57238741D01*
X95194500Y-57061259D01*
X95229124Y-56887188D01*
X95297044Y-56723216D01*
X95395647Y-56575646D01*
X95521146Y-56450147D01*
X95668716Y-56351544D01*
X95832688Y-56283624D01*
X95981988Y-56253927D01*
X96006758Y-56249000D01*
X96184242Y-56249000D01*
X96209012Y-56253927D01*
G37*
G36*
X93669012Y-56253927D02*
G01*
X93818312Y-56283624D01*
X93982284Y-56351544D01*
X94129854Y-56450147D01*
X94255353Y-56575646D01*
X94353956Y-56723216D01*
X94421876Y-56887188D01*
X94456500Y-57061259D01*
X94456500Y-57238741D01*
X94421876Y-57412812D01*
X94353956Y-57576784D01*
X94255353Y-57724354D01*
X94129854Y-57849853D01*
X93982284Y-57948456D01*
X93818312Y-58016376D01*
X93669012Y-58046073D01*
X93644242Y-58051000D01*
X93466758Y-58051000D01*
X93441988Y-58046073D01*
X93292688Y-58016376D01*
X93128716Y-57948456D01*
X92981146Y-57849853D01*
X92855647Y-57724354D01*
X92757044Y-57576784D01*
X92689124Y-57412812D01*
X92654500Y-57238741D01*
X92654500Y-57061259D01*
X92689124Y-56887188D01*
X92757044Y-56723216D01*
X92855647Y-56575646D01*
X92981146Y-56450147D01*
X93128716Y-56351544D01*
X93292688Y-56283624D01*
X93441988Y-56253927D01*
X93466758Y-56249000D01*
X93644242Y-56249000D01*
X93669012Y-56253927D01*
G37*
G36*
X91129012Y-56253927D02*
G01*
X91278312Y-56283624D01*
X91442284Y-56351544D01*
X91589854Y-56450147D01*
X91715353Y-56575646D01*
X91813956Y-56723216D01*
X91881876Y-56887188D01*
X91916500Y-57061259D01*
X91916500Y-57238741D01*
X91881876Y-57412812D01*
X91813956Y-57576784D01*
X91715353Y-57724354D01*
X91589854Y-57849853D01*
X91442284Y-57948456D01*
X91278312Y-58016376D01*
X91129012Y-58046073D01*
X91104242Y-58051000D01*
X90926758Y-58051000D01*
X90901988Y-58046073D01*
X90752688Y-58016376D01*
X90588716Y-57948456D01*
X90441146Y-57849853D01*
X90315647Y-57724354D01*
X90217044Y-57576784D01*
X90149124Y-57412812D01*
X90114500Y-57238741D01*
X90114500Y-57061259D01*
X90149124Y-56887188D01*
X90217044Y-56723216D01*
X90315647Y-56575646D01*
X90441146Y-56450147D01*
X90588716Y-56351544D01*
X90752688Y-56283624D01*
X90901988Y-56253927D01*
X90926758Y-56249000D01*
X91104242Y-56249000D01*
X91129012Y-56253927D01*
G37*
G36*
X89376500Y-58051000D02*
G01*
X87574500Y-58051000D01*
X87574500Y-56249000D01*
X89376500Y-56249000D01*
X89376500Y-58051000D01*
G37*
G36*
X65734500Y-58051000D02*
G01*
X63932500Y-58051000D01*
X63932500Y-56249000D01*
X65734500Y-56249000D01*
X65734500Y-58051000D01*
G37*
G36*
X77393012Y-56190427D02*
G01*
X77542312Y-56220124D01*
X77706284Y-56288044D01*
X77853854Y-56386647D01*
X77979353Y-56512146D01*
X78077956Y-56659716D01*
X78145876Y-56823688D01*
X78180500Y-56997759D01*
X78180500Y-57175241D01*
X78145876Y-57349312D01*
X78077956Y-57513284D01*
X77979353Y-57660854D01*
X77853854Y-57786353D01*
X77706284Y-57884956D01*
X77542312Y-57952876D01*
X77393012Y-57982573D01*
X77368242Y-57987500D01*
X77190758Y-57987500D01*
X77165988Y-57982573D01*
X77016688Y-57952876D01*
X76852716Y-57884956D01*
X76705146Y-57786353D01*
X76579647Y-57660854D01*
X76481044Y-57513284D01*
X76413124Y-57349312D01*
X76378500Y-57175241D01*
X76378500Y-56997759D01*
X76413124Y-56823688D01*
X76481044Y-56659716D01*
X76579647Y-56512146D01*
X76705146Y-56386647D01*
X76852716Y-56288044D01*
X77016688Y-56220124D01*
X77165988Y-56190427D01*
X77190758Y-56185500D01*
X77368242Y-56185500D01*
X77393012Y-56190427D01*
G37*
G36*
X80720500Y-57987500D02*
G01*
X78918500Y-57987500D01*
X78918500Y-56185500D01*
X80720500Y-56185500D01*
X80720500Y-57987500D01*
G37*
G36*
X51046000Y-57987500D02*
G01*
X49244000Y-57987500D01*
X49244000Y-56185500D01*
X51046000Y-56185500D01*
X51046000Y-57987500D01*
G37*
G36*
X47718512Y-56190427D02*
G01*
X47867812Y-56220124D01*
X48031784Y-56288044D01*
X48179354Y-56386647D01*
X48304853Y-56512146D01*
X48403456Y-56659716D01*
X48471376Y-56823688D01*
X48506000Y-56997759D01*
X48506000Y-57175241D01*
X48471376Y-57349312D01*
X48403456Y-57513284D01*
X48304853Y-57660854D01*
X48179354Y-57786353D01*
X48031784Y-57884956D01*
X47867812Y-57952876D01*
X47718512Y-57982573D01*
X47693742Y-57987500D01*
X47516258Y-57987500D01*
X47491488Y-57982573D01*
X47342188Y-57952876D01*
X47178216Y-57884956D01*
X47030646Y-57786353D01*
X46905147Y-57660854D01*
X46806544Y-57513284D01*
X46738624Y-57349312D01*
X46704000Y-57175241D01*
X46704000Y-56997759D01*
X46738624Y-56823688D01*
X46806544Y-56659716D01*
X46905147Y-56512146D01*
X47030646Y-56386647D01*
X47178216Y-56288044D01*
X47342188Y-56220124D01*
X47491488Y-56190427D01*
X47516258Y-56185500D01*
X47693742Y-56185500D01*
X47718512Y-56190427D01*
G37*
G36*
X45178512Y-56190427D02*
G01*
X45327812Y-56220124D01*
X45491784Y-56288044D01*
X45639354Y-56386647D01*
X45764853Y-56512146D01*
X45863456Y-56659716D01*
X45931376Y-56823688D01*
X45966000Y-56997759D01*
X45966000Y-57175241D01*
X45931376Y-57349312D01*
X45863456Y-57513284D01*
X45764853Y-57660854D01*
X45639354Y-57786353D01*
X45491784Y-57884956D01*
X45327812Y-57952876D01*
X45178512Y-57982573D01*
X45153742Y-57987500D01*
X44976258Y-57987500D01*
X44951488Y-57982573D01*
X44802188Y-57952876D01*
X44638216Y-57884956D01*
X44490646Y-57786353D01*
X44365147Y-57660854D01*
X44266544Y-57513284D01*
X44198624Y-57349312D01*
X44164000Y-57175241D01*
X44164000Y-56997759D01*
X44198624Y-56823688D01*
X44266544Y-56659716D01*
X44365147Y-56512146D01*
X44490646Y-56386647D01*
X44638216Y-56288044D01*
X44802188Y-56220124D01*
X44951488Y-56190427D01*
X44976258Y-56185500D01*
X45153742Y-56185500D01*
X45178512Y-56190427D01*
G37*
G36*
X42638512Y-56190427D02*
G01*
X42787812Y-56220124D01*
X42951784Y-56288044D01*
X43099354Y-56386647D01*
X43224853Y-56512146D01*
X43323456Y-56659716D01*
X43391376Y-56823688D01*
X43426000Y-56997759D01*
X43426000Y-57175241D01*
X43391376Y-57349312D01*
X43323456Y-57513284D01*
X43224853Y-57660854D01*
X43099354Y-57786353D01*
X42951784Y-57884956D01*
X42787812Y-57952876D01*
X42638512Y-57982573D01*
X42613742Y-57987500D01*
X42436258Y-57987500D01*
X42411488Y-57982573D01*
X42262188Y-57952876D01*
X42098216Y-57884956D01*
X41950646Y-57786353D01*
X41825147Y-57660854D01*
X41726544Y-57513284D01*
X41658624Y-57349312D01*
X41624000Y-57175241D01*
X41624000Y-56997759D01*
X41658624Y-56823688D01*
X41726544Y-56659716D01*
X41825147Y-56512146D01*
X41950646Y-56386647D01*
X42098216Y-56288044D01*
X42262188Y-56220124D01*
X42411488Y-56190427D01*
X42436258Y-56185500D01*
X42613742Y-56185500D01*
X42638512Y-56190427D01*
G37*
G36*
X74853012Y-56190427D02*
G01*
X75002312Y-56220124D01*
X75166284Y-56288044D01*
X75313854Y-56386647D01*
X75439353Y-56512146D01*
X75537956Y-56659716D01*
X75605876Y-56823688D01*
X75640500Y-56997759D01*
X75640500Y-57175241D01*
X75605876Y-57349312D01*
X75537956Y-57513284D01*
X75439353Y-57660854D01*
X75313854Y-57786353D01*
X75166284Y-57884956D01*
X75002312Y-57952876D01*
X74853012Y-57982573D01*
X74828242Y-57987500D01*
X74650758Y-57987500D01*
X74625988Y-57982573D01*
X74476688Y-57952876D01*
X74312716Y-57884956D01*
X74165146Y-57786353D01*
X74039647Y-57660854D01*
X73941044Y-57513284D01*
X73873124Y-57349312D01*
X73838500Y-57175241D01*
X73838500Y-56997759D01*
X73873124Y-56823688D01*
X73941044Y-56659716D01*
X74039647Y-56512146D01*
X74165146Y-56386647D01*
X74312716Y-56288044D01*
X74476688Y-56220124D01*
X74625988Y-56190427D01*
X74650758Y-56185500D01*
X74828242Y-56185500D01*
X74853012Y-56190427D01*
G37*
G36*
X72313012Y-56190427D02*
G01*
X72462312Y-56220124D01*
X72626284Y-56288044D01*
X72773854Y-56386647D01*
X72899353Y-56512146D01*
X72997956Y-56659716D01*
X73065876Y-56823688D01*
X73100500Y-56997759D01*
X73100500Y-57175241D01*
X73065876Y-57349312D01*
X72997956Y-57513284D01*
X72899353Y-57660854D01*
X72773854Y-57786353D01*
X72626284Y-57884956D01*
X72462312Y-57952876D01*
X72313012Y-57982573D01*
X72288242Y-57987500D01*
X72110758Y-57987500D01*
X72085988Y-57982573D01*
X71936688Y-57952876D01*
X71772716Y-57884956D01*
X71625146Y-57786353D01*
X71499647Y-57660854D01*
X71401044Y-57513284D01*
X71333124Y-57349312D01*
X71298500Y-57175241D01*
X71298500Y-56997759D01*
X71333124Y-56823688D01*
X71401044Y-56659716D01*
X71499647Y-56512146D01*
X71625146Y-56386647D01*
X71772716Y-56288044D01*
X71936688Y-56220124D01*
X72085988Y-56190427D01*
X72110758Y-56185500D01*
X72288242Y-56185500D01*
X72313012Y-56190427D01*
G37*
M02*
