G04 #@! TF.GenerationSoftware,KiCad,Pcbnew,5.1.5-52549c5~86~ubuntu18.04.1*
G04 #@! TF.CreationDate,2020-04-24T02:07:20+10:00*
G04 #@! TF.ProjectId,prac2,70726163-322e-46b6-9963-61645f706362,rev?*
G04 #@! TF.SameCoordinates,Original*
G04 #@! TF.FileFunction,Legend,Top*
G04 #@! TF.FilePolarity,Positive*
%FSLAX46Y46*%
G04 Gerber Fmt 4.6, Leading zero omitted, Abs format (unit mm)*
G04 Created by KiCad (PCBNEW 5.1.5-52549c5~86~ubuntu18.04.1) date 2020-04-24 02:07:20*
%MOMM*%
%LPD*%
G04 APERTURE LIST*
%ADD10C,0.150000*%
%ADD11C,0.120000*%
%ADD12C,0.203200*%
%ADD13C,0.127000*%
%ADD14C,0.015000*%
G04 APERTURE END LIST*
D10*
X96242142Y-112687380D02*
X96289761Y-112735000D01*
X96337380Y-112877857D01*
X96337380Y-112973095D01*
X96289761Y-113115952D01*
X96194523Y-113211190D01*
X96099285Y-113258809D01*
X95908809Y-113306428D01*
X95765952Y-113306428D01*
X95575476Y-113258809D01*
X95480238Y-113211190D01*
X95385000Y-113115952D01*
X95337380Y-112973095D01*
X95337380Y-112877857D01*
X95385000Y-112735000D01*
X95432619Y-112687380D01*
X96337380Y-111830238D02*
X95813571Y-111830238D01*
X95718333Y-111877857D01*
X95670714Y-111973095D01*
X95670714Y-112163571D01*
X95718333Y-112258809D01*
X96289761Y-111830238D02*
X96337380Y-111925476D01*
X96337380Y-112163571D01*
X96289761Y-112258809D01*
X96194523Y-112306428D01*
X96099285Y-112306428D01*
X96004047Y-112258809D01*
X95956428Y-112163571D01*
X95956428Y-111925476D01*
X95908809Y-111830238D01*
X96337380Y-111354047D02*
X95670714Y-111354047D01*
X95765952Y-111354047D02*
X95718333Y-111306428D01*
X95670714Y-111211190D01*
X95670714Y-111068333D01*
X95718333Y-110973095D01*
X95813571Y-110925476D01*
X96337380Y-110925476D01*
X95813571Y-110925476D02*
X95718333Y-110877857D01*
X95670714Y-110782619D01*
X95670714Y-110639761D01*
X95718333Y-110544523D01*
X95813571Y-110496904D01*
X96337380Y-110496904D01*
X96289761Y-109639761D02*
X96337380Y-109735000D01*
X96337380Y-109925476D01*
X96289761Y-110020714D01*
X96194523Y-110068333D01*
X95813571Y-110068333D01*
X95718333Y-110020714D01*
X95670714Y-109925476D01*
X95670714Y-109735000D01*
X95718333Y-109639761D01*
X95813571Y-109592142D01*
X95908809Y-109592142D01*
X96004047Y-110068333D01*
X96337380Y-109163571D02*
X95670714Y-109163571D01*
X95861190Y-109163571D02*
X95765952Y-109115952D01*
X95718333Y-109068333D01*
X95670714Y-108973095D01*
X95670714Y-108877857D01*
X96337380Y-108401666D02*
X96289761Y-108496904D01*
X96242142Y-108544523D01*
X96146904Y-108592142D01*
X95861190Y-108592142D01*
X95765952Y-108544523D01*
X95718333Y-108496904D01*
X95670714Y-108401666D01*
X95670714Y-108258809D01*
X95718333Y-108163571D01*
X95765952Y-108115952D01*
X95861190Y-108068333D01*
X96146904Y-108068333D01*
X96242142Y-108115952D01*
X96289761Y-108163571D01*
X96337380Y-108258809D01*
X96337380Y-108401666D01*
X95670714Y-107639761D02*
X96337380Y-107639761D01*
X95765952Y-107639761D02*
X95718333Y-107592142D01*
X95670714Y-107496904D01*
X95670714Y-107354047D01*
X95718333Y-107258809D01*
X95813571Y-107211190D01*
X96337380Y-107211190D01*
X96289761Y-106020714D02*
X96337380Y-105877857D01*
X96337380Y-105639761D01*
X96289761Y-105544523D01*
X96242142Y-105496904D01*
X96146904Y-105449285D01*
X96051666Y-105449285D01*
X95956428Y-105496904D01*
X95908809Y-105544523D01*
X95861190Y-105639761D01*
X95813571Y-105830238D01*
X95765952Y-105925476D01*
X95718333Y-105973095D01*
X95623095Y-106020714D01*
X95527857Y-106020714D01*
X95432619Y-105973095D01*
X95385000Y-105925476D01*
X95337380Y-105830238D01*
X95337380Y-105592142D01*
X95385000Y-105449285D01*
X95670714Y-105163571D02*
X95670714Y-104782619D01*
X95337380Y-105020714D02*
X96194523Y-105020714D01*
X96289761Y-104973095D01*
X96337380Y-104877857D01*
X96337380Y-104782619D01*
X96337380Y-104449285D02*
X95670714Y-104449285D01*
X95861190Y-104449285D02*
X95765952Y-104401666D01*
X95718333Y-104354047D01*
X95670714Y-104258809D01*
X95670714Y-104163571D01*
X96337380Y-103687380D02*
X96289761Y-103782619D01*
X96242142Y-103830238D01*
X96146904Y-103877857D01*
X95861190Y-103877857D01*
X95765952Y-103830238D01*
X95718333Y-103782619D01*
X95670714Y-103687380D01*
X95670714Y-103544523D01*
X95718333Y-103449285D01*
X95765952Y-103401666D01*
X95861190Y-103354047D01*
X96146904Y-103354047D01*
X96242142Y-103401666D01*
X96289761Y-103449285D01*
X96337380Y-103544523D01*
X96337380Y-103687380D01*
X95670714Y-102496904D02*
X96337380Y-102496904D01*
X95670714Y-102925476D02*
X96194523Y-102925476D01*
X96289761Y-102877857D01*
X96337380Y-102782619D01*
X96337380Y-102639761D01*
X96289761Y-102544523D01*
X96242142Y-102496904D01*
X96337380Y-101592142D02*
X95337380Y-101592142D01*
X96289761Y-101592142D02*
X96337380Y-101687380D01*
X96337380Y-101877857D01*
X96289761Y-101973095D01*
X96242142Y-102020714D01*
X96146904Y-102068333D01*
X95861190Y-102068333D01*
X95765952Y-102020714D01*
X95718333Y-101973095D01*
X95670714Y-101877857D01*
X95670714Y-101687380D01*
X95718333Y-101592142D01*
X95956428Y-100354047D02*
X95956428Y-99592142D01*
X95670714Y-97925476D02*
X96337380Y-97925476D01*
X95289761Y-98163571D02*
X96004047Y-98401666D01*
X96004047Y-97782619D01*
X95670714Y-96973095D02*
X96337380Y-96973095D01*
X95289761Y-97211190D02*
X96004047Y-97449285D01*
X96004047Y-96830238D01*
X95337380Y-96544523D02*
X95337380Y-95925476D01*
X95718333Y-96258809D01*
X95718333Y-96115952D01*
X95765952Y-96020714D01*
X95813571Y-95973095D01*
X95908809Y-95925476D01*
X96146904Y-95925476D01*
X96242142Y-95973095D01*
X96289761Y-96020714D01*
X96337380Y-96115952D01*
X96337380Y-96401666D01*
X96289761Y-96496904D01*
X96242142Y-96544523D01*
X95670714Y-95068333D02*
X96337380Y-95068333D01*
X95289761Y-95306428D02*
X96004047Y-95544523D01*
X96004047Y-94925476D01*
X95670714Y-94115952D02*
X96337380Y-94115952D01*
X95289761Y-94354047D02*
X96004047Y-94592142D01*
X96004047Y-93973095D01*
X96337380Y-93544523D02*
X96337380Y-93354047D01*
X96289761Y-93258809D01*
X96242142Y-93211190D01*
X96099285Y-93115952D01*
X95908809Y-93068333D01*
X95527857Y-93068333D01*
X95432619Y-93115952D01*
X95385000Y-93163571D01*
X95337380Y-93258809D01*
X95337380Y-93449285D01*
X95385000Y-93544523D01*
X95432619Y-93592142D01*
X95527857Y-93639761D01*
X95765952Y-93639761D01*
X95861190Y-93592142D01*
X95908809Y-93544523D01*
X95956428Y-93449285D01*
X95956428Y-93258809D01*
X95908809Y-93163571D01*
X95861190Y-93115952D01*
X95765952Y-93068333D01*
X95337380Y-92211190D02*
X95337380Y-92401666D01*
X95385000Y-92496904D01*
X95432619Y-92544523D01*
X95575476Y-92639761D01*
X95765952Y-92687380D01*
X96146904Y-92687380D01*
X96242142Y-92639761D01*
X96289761Y-92592142D01*
X96337380Y-92496904D01*
X96337380Y-92306428D01*
X96289761Y-92211190D01*
X96242142Y-92163571D01*
X96146904Y-92115952D01*
X95908809Y-92115952D01*
X95813571Y-92163571D01*
X95765952Y-92211190D01*
X95718333Y-92306428D01*
X95718333Y-92496904D01*
X95765952Y-92592142D01*
X95813571Y-92639761D01*
X95908809Y-92687380D01*
X95765952Y-91544523D02*
X95718333Y-91639761D01*
X95670714Y-91687380D01*
X95575476Y-91735000D01*
X95527857Y-91735000D01*
X95432619Y-91687380D01*
X95385000Y-91639761D01*
X95337380Y-91544523D01*
X95337380Y-91354047D01*
X95385000Y-91258809D01*
X95432619Y-91211190D01*
X95527857Y-91163571D01*
X95575476Y-91163571D01*
X95670714Y-91211190D01*
X95718333Y-91258809D01*
X95765952Y-91354047D01*
X95765952Y-91544523D01*
X95813571Y-91639761D01*
X95861190Y-91687380D01*
X95956428Y-91735000D01*
X96146904Y-91735000D01*
X96242142Y-91687380D01*
X96289761Y-91639761D01*
X96337380Y-91544523D01*
X96337380Y-91354047D01*
X96289761Y-91258809D01*
X96242142Y-91211190D01*
X96146904Y-91163571D01*
X95956428Y-91163571D01*
X95861190Y-91211190D01*
X95813571Y-91258809D01*
X95765952Y-91354047D01*
X98194761Y-113219285D02*
X98242380Y-113076428D01*
X98242380Y-112838333D01*
X98194761Y-112743095D01*
X98147142Y-112695476D01*
X98051904Y-112647857D01*
X97956666Y-112647857D01*
X97861428Y-112695476D01*
X97813809Y-112743095D01*
X97766190Y-112838333D01*
X97718571Y-113028809D01*
X97670952Y-113124047D01*
X97623333Y-113171666D01*
X97528095Y-113219285D01*
X97432857Y-113219285D01*
X97337619Y-113171666D01*
X97290000Y-113124047D01*
X97242380Y-113028809D01*
X97242380Y-112790714D01*
X97290000Y-112647857D01*
X98147142Y-111647857D02*
X98194761Y-111695476D01*
X98242380Y-111838333D01*
X98242380Y-111933571D01*
X98194761Y-112076428D01*
X98099523Y-112171666D01*
X98004285Y-112219285D01*
X97813809Y-112266904D01*
X97670952Y-112266904D01*
X97480476Y-112219285D01*
X97385238Y-112171666D01*
X97290000Y-112076428D01*
X97242380Y-111933571D01*
X97242380Y-111838333D01*
X97290000Y-111695476D01*
X97337619Y-111647857D01*
X97242380Y-111219285D02*
X98051904Y-111219285D01*
X98147142Y-111171666D01*
X98194761Y-111124047D01*
X98242380Y-111028809D01*
X98242380Y-110838333D01*
X98194761Y-110743095D01*
X98147142Y-110695476D01*
X98051904Y-110647857D01*
X97242380Y-110647857D01*
X98242380Y-109409761D02*
X97242380Y-109409761D01*
X97575714Y-108933571D02*
X98242380Y-108933571D01*
X97670952Y-108933571D02*
X97623333Y-108885952D01*
X97575714Y-108790714D01*
X97575714Y-108647857D01*
X97623333Y-108552619D01*
X97718571Y-108505000D01*
X98242380Y-108505000D01*
X97575714Y-108171666D02*
X97575714Y-107790714D01*
X97242380Y-108028809D02*
X98099523Y-108028809D01*
X98194761Y-107981190D01*
X98242380Y-107885952D01*
X98242380Y-107790714D01*
X98194761Y-107076428D02*
X98242380Y-107171666D01*
X98242380Y-107362142D01*
X98194761Y-107457380D01*
X98099523Y-107505000D01*
X97718571Y-107505000D01*
X97623333Y-107457380D01*
X97575714Y-107362142D01*
X97575714Y-107171666D01*
X97623333Y-107076428D01*
X97718571Y-107028809D01*
X97813809Y-107028809D01*
X97909047Y-107505000D01*
X98242380Y-106600238D02*
X97575714Y-106600238D01*
X97766190Y-106600238D02*
X97670952Y-106552619D01*
X97623333Y-106505000D01*
X97575714Y-106409761D01*
X97575714Y-106314523D01*
X97575714Y-106124047D02*
X97575714Y-105743095D01*
X98242380Y-105981190D02*
X97385238Y-105981190D01*
X97290000Y-105933571D01*
X97242380Y-105838333D01*
X97242380Y-105743095D01*
X98242380Y-104981190D02*
X97718571Y-104981190D01*
X97623333Y-105028809D01*
X97575714Y-105124047D01*
X97575714Y-105314523D01*
X97623333Y-105409761D01*
X98194761Y-104981190D02*
X98242380Y-105076428D01*
X98242380Y-105314523D01*
X98194761Y-105409761D01*
X98099523Y-105457380D01*
X98004285Y-105457380D01*
X97909047Y-105409761D01*
X97861428Y-105314523D01*
X97861428Y-105076428D01*
X97813809Y-104981190D01*
X98194761Y-104076428D02*
X98242380Y-104171666D01*
X98242380Y-104362142D01*
X98194761Y-104457380D01*
X98147142Y-104505000D01*
X98051904Y-104552619D01*
X97766190Y-104552619D01*
X97670952Y-104505000D01*
X97623333Y-104457380D01*
X97575714Y-104362142D01*
X97575714Y-104171666D01*
X97623333Y-104076428D01*
X98194761Y-103266904D02*
X98242380Y-103362142D01*
X98242380Y-103552619D01*
X98194761Y-103647857D01*
X98099523Y-103695476D01*
X97718571Y-103695476D01*
X97623333Y-103647857D01*
X97575714Y-103552619D01*
X97575714Y-103362142D01*
X97623333Y-103266904D01*
X97718571Y-103219285D01*
X97813809Y-103219285D01*
X97909047Y-103695476D01*
X97718571Y-101695476D02*
X97766190Y-101552619D01*
X97813809Y-101505000D01*
X97909047Y-101457380D01*
X98051904Y-101457380D01*
X98147142Y-101505000D01*
X98194761Y-101552619D01*
X98242380Y-101647857D01*
X98242380Y-102028809D01*
X97242380Y-102028809D01*
X97242380Y-101695476D01*
X97290000Y-101600238D01*
X97337619Y-101552619D01*
X97432857Y-101505000D01*
X97528095Y-101505000D01*
X97623333Y-101552619D01*
X97670952Y-101600238D01*
X97718571Y-101695476D01*
X97718571Y-102028809D01*
X98242380Y-100885952D02*
X98194761Y-100981190D01*
X98147142Y-101028809D01*
X98051904Y-101076428D01*
X97766190Y-101076428D01*
X97670952Y-101028809D01*
X97623333Y-100981190D01*
X97575714Y-100885952D01*
X97575714Y-100743095D01*
X97623333Y-100647857D01*
X97670952Y-100600238D01*
X97766190Y-100552619D01*
X98051904Y-100552619D01*
X98147142Y-100600238D01*
X98194761Y-100647857D01*
X98242380Y-100743095D01*
X98242380Y-100885952D01*
X98242380Y-99695476D02*
X97718571Y-99695476D01*
X97623333Y-99743095D01*
X97575714Y-99838333D01*
X97575714Y-100028809D01*
X97623333Y-100124047D01*
X98194761Y-99695476D02*
X98242380Y-99790714D01*
X98242380Y-100028809D01*
X98194761Y-100124047D01*
X98099523Y-100171666D01*
X98004285Y-100171666D01*
X97909047Y-100124047D01*
X97861428Y-100028809D01*
X97861428Y-99790714D01*
X97813809Y-99695476D01*
X98242380Y-99219285D02*
X97575714Y-99219285D01*
X97766190Y-99219285D02*
X97670952Y-99171666D01*
X97623333Y-99124047D01*
X97575714Y-99028809D01*
X97575714Y-98933571D01*
X98242380Y-98171666D02*
X97242380Y-98171666D01*
X98194761Y-98171666D02*
X98242380Y-98266904D01*
X98242380Y-98457380D01*
X98194761Y-98552619D01*
X98147142Y-98600238D01*
X98051904Y-98647857D01*
X97766190Y-98647857D01*
X97670952Y-98600238D01*
X97623333Y-98552619D01*
X97575714Y-98457380D01*
X97575714Y-98266904D01*
X97623333Y-98171666D01*
X98242380Y-96362142D02*
X97766190Y-96695476D01*
X98242380Y-96933571D02*
X97242380Y-96933571D01*
X97242380Y-96552619D01*
X97290000Y-96457380D01*
X97337619Y-96409761D01*
X97432857Y-96362142D01*
X97575714Y-96362142D01*
X97670952Y-96409761D01*
X97718571Y-96457380D01*
X97766190Y-96552619D01*
X97766190Y-96933571D01*
X98194761Y-95552619D02*
X98242380Y-95647857D01*
X98242380Y-95838333D01*
X98194761Y-95933571D01*
X98099523Y-95981190D01*
X97718571Y-95981190D01*
X97623333Y-95933571D01*
X97575714Y-95838333D01*
X97575714Y-95647857D01*
X97623333Y-95552619D01*
X97718571Y-95505000D01*
X97813809Y-95505000D01*
X97909047Y-95981190D01*
X97575714Y-95171666D02*
X98242380Y-94933571D01*
X97575714Y-94695476D01*
X98242380Y-93790714D02*
X98242380Y-94362142D01*
X98242380Y-94076428D02*
X97242380Y-94076428D01*
X97385238Y-94171666D01*
X97480476Y-94266904D01*
X97528095Y-94362142D01*
D11*
X81149500Y-55756500D02*
X81149500Y-57086500D01*
X79819500Y-55756500D02*
X81149500Y-55756500D01*
X78549500Y-55756500D02*
X78549500Y-58416500D01*
X78549500Y-58416500D02*
X70869500Y-58416500D01*
X78549500Y-55756500D02*
X70869500Y-55756500D01*
X70869500Y-55756500D02*
X70869500Y-58416500D01*
D12*
X77162000Y-106172000D02*
G75*
G03X77162000Y-106172000I-200000J0D01*
G01*
D13*
X79502000Y-112522000D02*
X56642000Y-112522000D01*
X79502000Y-61722000D02*
X79502000Y-112522000D01*
X56642000Y-61722000D02*
X79502000Y-61722000D01*
X56642000Y-112522000D02*
X56642000Y-61722000D01*
D11*
X51475000Y-55756500D02*
X51475000Y-57086500D01*
X50145000Y-55756500D02*
X51475000Y-55756500D01*
X48875000Y-55756500D02*
X48875000Y-58416500D01*
X48875000Y-58416500D02*
X41195000Y-58416500D01*
X48875000Y-55756500D02*
X41195000Y-55756500D01*
X41195000Y-55756500D02*
X41195000Y-58416500D01*
X66163500Y-55820000D02*
X66163500Y-57150000D01*
X64833500Y-55820000D02*
X66163500Y-55820000D01*
X63563500Y-55820000D02*
X63563500Y-58480000D01*
X63563500Y-58480000D02*
X55883500Y-58480000D01*
X63563500Y-55820000D02*
X55883500Y-55820000D01*
X55883500Y-55820000D02*
X55883500Y-58480000D01*
X66764000Y-115319500D02*
X66764000Y-116649500D01*
X65434000Y-115319500D02*
X66764000Y-115319500D01*
X64164000Y-115319500D02*
X64164000Y-117979500D01*
X64164000Y-117979500D02*
X56484000Y-117979500D01*
X64164000Y-115319500D02*
X56484000Y-115319500D01*
X56484000Y-115319500D02*
X56484000Y-117979500D01*
X47050000Y-97342000D02*
X45720000Y-97342000D01*
X47050000Y-96012000D02*
X47050000Y-97342000D01*
X47050000Y-94742000D02*
X44390000Y-94742000D01*
X44390000Y-94742000D02*
X44390000Y-66742000D01*
X47050000Y-94742000D02*
X47050000Y-66742000D01*
X47050000Y-66742000D02*
X44390000Y-66742000D01*
X91246000Y-107502000D02*
X89916000Y-107502000D01*
X91246000Y-106172000D02*
X91246000Y-107502000D01*
X91246000Y-104902000D02*
X88586000Y-104902000D01*
X88586000Y-104902000D02*
X88586000Y-66742000D01*
X91246000Y-104902000D02*
X91246000Y-66742000D01*
X91246000Y-66742000D02*
X88586000Y-66742000D01*
X41215000Y-117979500D02*
X41215000Y-116649500D01*
X42545000Y-117979500D02*
X41215000Y-117979500D01*
X43815000Y-117979500D02*
X43815000Y-115319500D01*
X43815000Y-115319500D02*
X51495000Y-115319500D01*
X43815000Y-117979500D02*
X51495000Y-117979500D01*
X51495000Y-117979500D02*
X51495000Y-115319500D01*
X87145500Y-58480000D02*
X87145500Y-57150000D01*
X88475500Y-58480000D02*
X87145500Y-58480000D01*
X89745500Y-58480000D02*
X89745500Y-55820000D01*
X89745500Y-55820000D02*
X97425500Y-55820000D01*
X89745500Y-58480000D02*
X97425500Y-58480000D01*
X97425500Y-58480000D02*
X97425500Y-55820000D01*
X97342000Y-115319500D02*
X97342000Y-116649500D01*
X96012000Y-115319500D02*
X97342000Y-115319500D01*
X94742000Y-115319500D02*
X94742000Y-117979500D01*
X94742000Y-117979500D02*
X87062000Y-117979500D01*
X94742000Y-115319500D02*
X87062000Y-115319500D01*
X87062000Y-115319500D02*
X87062000Y-117979500D01*
X82053000Y-115319500D02*
X82053000Y-116649500D01*
X80723000Y-115319500D02*
X82053000Y-115319500D01*
X79453000Y-115319500D02*
X79453000Y-117979500D01*
X79453000Y-117979500D02*
X71773000Y-117979500D01*
X79453000Y-115319500D02*
X71773000Y-115319500D01*
X71773000Y-115319500D02*
X71773000Y-117979500D01*
D10*
X81601880Y-57419833D02*
X82316166Y-57419833D01*
X82459023Y-57467452D01*
X82554261Y-57562690D01*
X82601880Y-57705547D01*
X82601880Y-57800785D01*
X82030452Y-56800785D02*
X81982833Y-56896023D01*
X81935214Y-56943642D01*
X81839976Y-56991261D01*
X81792357Y-56991261D01*
X81697119Y-56943642D01*
X81649500Y-56896023D01*
X81601880Y-56800785D01*
X81601880Y-56610309D01*
X81649500Y-56515071D01*
X81697119Y-56467452D01*
X81792357Y-56419833D01*
X81839976Y-56419833D01*
X81935214Y-56467452D01*
X81982833Y-56515071D01*
X82030452Y-56610309D01*
X82030452Y-56800785D01*
X82078071Y-56896023D01*
X82125690Y-56943642D01*
X82220928Y-56991261D01*
X82411404Y-56991261D01*
X82506642Y-56943642D01*
X82554261Y-56896023D01*
X82601880Y-56800785D01*
X82601880Y-56610309D01*
X82554261Y-56515071D01*
X82506642Y-56467452D01*
X82411404Y-56419833D01*
X82220928Y-56419833D01*
X82125690Y-56467452D01*
X82078071Y-56515071D01*
X82030452Y-56610309D01*
X91368380Y-111759904D02*
X92177904Y-111759904D01*
X92273142Y-111712285D01*
X92320761Y-111664666D01*
X92368380Y-111569428D01*
X92368380Y-111378952D01*
X92320761Y-111283714D01*
X92273142Y-111236095D01*
X92177904Y-111188476D01*
X91368380Y-111188476D01*
X91463619Y-110759904D02*
X91416000Y-110712285D01*
X91368380Y-110617047D01*
X91368380Y-110378952D01*
X91416000Y-110283714D01*
X91463619Y-110236095D01*
X91558857Y-110188476D01*
X91654095Y-110188476D01*
X91796952Y-110236095D01*
X92368380Y-110807523D01*
X92368380Y-110188476D01*
D14*
X53686150Y-106644660D02*
X54821867Y-106644660D01*
X54955481Y-106577853D01*
X55022288Y-106511046D01*
X55089095Y-106377432D01*
X55089095Y-106110205D01*
X55022288Y-105976591D01*
X54955481Y-105909784D01*
X54821867Y-105842977D01*
X53686150Y-105842977D01*
X55089095Y-104440032D02*
X55089095Y-105241715D01*
X55089095Y-104840874D02*
X53686150Y-104840874D01*
X53886571Y-104974487D01*
X54020185Y-105108101D01*
X54086992Y-105241715D01*
D10*
X51927380Y-57896023D02*
X52641666Y-57896023D01*
X52784523Y-57943642D01*
X52879761Y-58038880D01*
X52927380Y-58181738D01*
X52927380Y-58276976D01*
X52927380Y-56896023D02*
X52927380Y-57467452D01*
X52927380Y-57181738D02*
X51927380Y-57181738D01*
X52070238Y-57276976D01*
X52165476Y-57372214D01*
X52213095Y-57467452D01*
X51927380Y-56276976D02*
X51927380Y-56181738D01*
X51975000Y-56086500D01*
X52022619Y-56038880D01*
X52117857Y-55991261D01*
X52308333Y-55943642D01*
X52546428Y-55943642D01*
X52736904Y-55991261D01*
X52832142Y-56038880D01*
X52879761Y-56086500D01*
X52927380Y-56181738D01*
X52927380Y-56276976D01*
X52879761Y-56372214D01*
X52832142Y-56419833D01*
X52736904Y-56467452D01*
X52546428Y-56515071D01*
X52308333Y-56515071D01*
X52117857Y-56467452D01*
X52022619Y-56419833D01*
X51975000Y-56372214D01*
X51927380Y-56276976D01*
X66615880Y-57483333D02*
X67330166Y-57483333D01*
X67473023Y-57530952D01*
X67568261Y-57626190D01*
X67615880Y-57769047D01*
X67615880Y-57864285D01*
X67615880Y-56959523D02*
X67615880Y-56769047D01*
X67568261Y-56673809D01*
X67520642Y-56626190D01*
X67377785Y-56530952D01*
X67187309Y-56483333D01*
X66806357Y-56483333D01*
X66711119Y-56530952D01*
X66663500Y-56578571D01*
X66615880Y-56673809D01*
X66615880Y-56864285D01*
X66663500Y-56959523D01*
X66711119Y-57007142D01*
X66806357Y-57054761D01*
X67044452Y-57054761D01*
X67139690Y-57007142D01*
X67187309Y-56959523D01*
X67234928Y-56864285D01*
X67234928Y-56673809D01*
X67187309Y-56578571D01*
X67139690Y-56530952D01*
X67044452Y-56483333D01*
X67216380Y-116982833D02*
X67930666Y-116982833D01*
X68073523Y-117030452D01*
X68168761Y-117125690D01*
X68216380Y-117268547D01*
X68216380Y-117363785D01*
X67216380Y-116601880D02*
X67216380Y-115935214D01*
X68216380Y-116363785D01*
X45386666Y-97794380D02*
X45386666Y-98508666D01*
X45339047Y-98651523D01*
X45243809Y-98746761D01*
X45100952Y-98794380D01*
X45005714Y-98794380D01*
X46291428Y-97794380D02*
X46100952Y-97794380D01*
X46005714Y-97842000D01*
X45958095Y-97889619D01*
X45862857Y-98032476D01*
X45815238Y-98222952D01*
X45815238Y-98603904D01*
X45862857Y-98699142D01*
X45910476Y-98746761D01*
X46005714Y-98794380D01*
X46196190Y-98794380D01*
X46291428Y-98746761D01*
X46339047Y-98699142D01*
X46386666Y-98603904D01*
X46386666Y-98365809D01*
X46339047Y-98270571D01*
X46291428Y-98222952D01*
X46196190Y-98175333D01*
X46005714Y-98175333D01*
X45910476Y-98222952D01*
X45862857Y-98270571D01*
X45815238Y-98365809D01*
X89582666Y-107954380D02*
X89582666Y-108668666D01*
X89535047Y-108811523D01*
X89439809Y-108906761D01*
X89296952Y-108954380D01*
X89201714Y-108954380D01*
X90535047Y-107954380D02*
X90058857Y-107954380D01*
X90011238Y-108430571D01*
X90058857Y-108382952D01*
X90154095Y-108335333D01*
X90392190Y-108335333D01*
X90487428Y-108382952D01*
X90535047Y-108430571D01*
X90582666Y-108525809D01*
X90582666Y-108763904D01*
X90535047Y-108859142D01*
X90487428Y-108906761D01*
X90392190Y-108954380D01*
X90154095Y-108954380D01*
X90058857Y-108906761D01*
X90011238Y-108859142D01*
X39667380Y-116982833D02*
X40381666Y-116982833D01*
X40524523Y-117030452D01*
X40619761Y-117125690D01*
X40667380Y-117268547D01*
X40667380Y-117363785D01*
X40000714Y-116078071D02*
X40667380Y-116078071D01*
X39619761Y-116316166D02*
X40334047Y-116554261D01*
X40334047Y-115935214D01*
X85597880Y-57483333D02*
X86312166Y-57483333D01*
X86455023Y-57530952D01*
X86550261Y-57626190D01*
X86597880Y-57769047D01*
X86597880Y-57864285D01*
X85597880Y-57102380D02*
X85597880Y-56483333D01*
X85978833Y-56816666D01*
X85978833Y-56673809D01*
X86026452Y-56578571D01*
X86074071Y-56530952D01*
X86169309Y-56483333D01*
X86407404Y-56483333D01*
X86502642Y-56530952D01*
X86550261Y-56578571D01*
X86597880Y-56673809D01*
X86597880Y-56959523D01*
X86550261Y-57054761D01*
X86502642Y-57102380D01*
X97794380Y-116982833D02*
X98508666Y-116982833D01*
X98651523Y-117030452D01*
X98746761Y-117125690D01*
X98794380Y-117268547D01*
X98794380Y-117363785D01*
X97889619Y-116554261D02*
X97842000Y-116506642D01*
X97794380Y-116411404D01*
X97794380Y-116173309D01*
X97842000Y-116078071D01*
X97889619Y-116030452D01*
X97984857Y-115982833D01*
X98080095Y-115982833D01*
X98222952Y-116030452D01*
X98794380Y-116601880D01*
X98794380Y-115982833D01*
X82505380Y-116982833D02*
X83219666Y-116982833D01*
X83362523Y-117030452D01*
X83457761Y-117125690D01*
X83505380Y-117268547D01*
X83505380Y-117363785D01*
X83505380Y-115982833D02*
X83505380Y-116554261D01*
X83505380Y-116268547D02*
X82505380Y-116268547D01*
X82648238Y-116363785D01*
X82743476Y-116459023D01*
X82791095Y-116554261D01*
M02*
